<?xml version="1.0" encoding="UTF-8" standalone="no"?>
<!-- Created with Inkscape (http://www.inkscape.org/) -->

<svg
   xmlns:dc="http://purl.org/dc/elements/1.1/"
   xmlns:cc="http://creativecommons.org/ns#"
   xmlns:rdf="http://www.w3.org/1999/02/22-rdf-syntax-ns#"
   xmlns:svg="http://www.w3.org/2000/svg"
   xmlns="http://www.w3.org/2000/svg"
   xmlns:sodipodi="http://sodipodi.sourceforge.net/DTD/sodipodi-0.dtd"
   xmlns:inkscape="http://www.inkscape.org/namespaces/inkscape"
   width="100.2651mm"
   height="100.26511mm"
   viewBox="0 0 100.2651 100.26512"
   version="1.1"
   id="svg5021"
   inkscape:version="0.92.1 r15371"
   sodipodi:docname="Botonera-Corte-laser.svg">
  <defs
     id="defs5015" />
  <sodipodi:namedview
     id="base"
     pagecolor="#ffffff"
     bordercolor="#666666"
     borderopacity="1.0"
     inkscape:pageopacity="0.0"
     inkscape:pageshadow="2"
     inkscape:zoom="0.49497475"
     inkscape:cx="-148.1176"
     inkscape:cy="3.3416449"
     inkscape:document-units="mm"
     inkscape:current-layer="layer1"
     showgrid="false"
     fit-margin-top="0"
     fit-margin-left="0"
     fit-margin-right="0"
     fit-margin-bottom="0"
     inkscape:window-width="1366"
     inkscape:window-height="705"
     inkscape:window-x="-8"
     inkscape:window-y="-8"
     inkscape:window-maximized="1" />
  <metadata
     id="metadata5018">
    <rdf:RDF>
      <cc:Work
         rdf:about="">
        <dc:format>image/svg+xml</dc:format>
        <dc:type
           rdf:resource="http://purl.org/dc/dcmitype/StillImage" />
        <dc:title></dc:title>
      </cc:Work>
    </rdf:RDF>
  </metadata>
  <g
     inkscape:label="Capa 1"
     inkscape:groupmode="layer"
     id="layer1"
     transform="translate(191.43524,13.110871)">
    <rect
       style="opacity:0.98000004;fill:none;fill-opacity:1;stroke:#0000ff;stroke-width:0.30000001;stroke-linecap:square;stroke-linejoin:round;stroke-miterlimit:4;stroke-dasharray:none;stroke-dashoffset:0;stroke-opacity:1;paint-order:markers stroke fill"
       id="rect7528"
       width="48.002975"
       height="48.002975"
       x="-165.30455"
       y="13.020314"
       rx="0.293751"
       ry="0.40710908" />
    <rect
       style="opacity:0.98000004;fill:none;fill-opacity:1;stroke:#0000ff;stroke-width:0.28293192;stroke-linecap:square;stroke-linejoin:round;stroke-miterlimit:4;stroke-dasharray:none;stroke-dashoffset:0;stroke-opacity:1;paint-order:markers stroke fill"
       id="rect7576"
       width="5.6867108"
       height="3.418854"
       x="-159.03938"
       y="49.954735"
       rx="0.25997233"
       ry="0.4091517" />
    <rect
       style="opacity:0.98000004;fill:none;fill-opacity:1;stroke:#0000ff;stroke-width:0.30000001;stroke-linecap:square;stroke-linejoin:round;stroke-miterlimit:4;stroke-dasharray:none;stroke-dashoffset:0;stroke-opacity:1;paint-order:markers stroke fill"
       id="rect7578"
       width="0.51971728"
       height="3.3545387"
       x="-157.97249"
       y="53.365044"
       rx="0.293751"
       ry="0.40710908" />
    <rect
       style="opacity:0.98000004;fill:none;fill-opacity:1;stroke:#0000ff;stroke-width:0.30000001;stroke-linecap:square;stroke-linejoin:round;stroke-miterlimit:4;stroke-dasharray:none;stroke-dashoffset:0;stroke-opacity:1;paint-order:markers stroke fill"
       id="rect7578-1"
       width="0.51971728"
       height="3.3545387"
       x="-154.71248"
       y="53.365044"
       rx="0.293751"
       ry="0.40710908" />
    <rect
       style="opacity:0.98000004;fill:none;fill-opacity:1;stroke:#0000ff;stroke-width:0.30000001;stroke-linecap:square;stroke-linejoin:round;stroke-miterlimit:4;stroke-dasharray:none;stroke-dashoffset:0;stroke-opacity:1;paint-order:markers stroke fill"
       id="rect7578-11"
       width="0.51971728"
       height="3.3545387"
       x="-156.3"
       y="53.365044"
       rx="0.293751"
       ry="0.40710908" />
    <circle
       style="opacity:0.98000004;fill:none;fill-opacity:1;stroke:#0000ff;stroke-width:0.34457737;stroke-linecap:square;stroke-linejoin:round;stroke-miterlimit:4;stroke-dasharray:none;stroke-dashoffset:0;stroke-opacity:1;paint-order:markers stroke fill"
       id="path7532-7-7"
       cx="-141.30305"
       cy="37.021805"
       r="4.9926114"
       inkscape:transform-center-x="-9.5510741"
       inkscape:transform-center-y="21.707017" />
    <circle
       style="opacity:0.98000004;fill:none;fill-opacity:1;stroke:#0000ff;stroke-width:0.34457737;stroke-linecap:square;stroke-linejoin:round;stroke-miterlimit:4;stroke-dasharray:none;stroke-dashoffset:0;stroke-opacity:1;paint-order:markers stroke fill"
       id="path7532-7-8"
       cx="-154.53242"
       cy="37.021805"
       r="4.9926114"
       inkscape:transform-center-x="-9.5510741"
       inkscape:transform-center-y="21.707017" />
    <circle
       style="opacity:0.98000004;fill:none;fill-opacity:1;stroke:#0000ff;stroke-width:0.34457737;stroke-linecap:square;stroke-linejoin:round;stroke-miterlimit:4;stroke-dasharray:none;stroke-dashoffset:0;stroke-opacity:1;paint-order:markers stroke fill"
       id="path7532-7-88"
       cx="-128.07368"
       cy="37.021805"
       r="4.9926114"
       inkscape:transform-center-x="-9.5510741"
       inkscape:transform-center-y="21.707017" />
    <circle
       style="opacity:0.98000004;fill:none;fill-opacity:1;stroke:#0000ff;stroke-width:0.34457737;stroke-linecap:square;stroke-linejoin:round;stroke-miterlimit:4;stroke-dasharray:none;stroke-dashoffset:0;stroke-opacity:1;paint-order:markers stroke fill"
       id="path7532-7-87"
       cx="-141.30305"
       cy="50.25079"
       r="4.9926114"
       inkscape:transform-center-x="-9.5510741"
       inkscape:transform-center-y="21.707017" />
    <circle
       style="opacity:0.98000004;fill:none;fill-opacity:1;stroke:#0000ff;stroke-width:0.34457737;stroke-linecap:square;stroke-linejoin:round;stroke-miterlimit:4;stroke-dasharray:none;stroke-dashoffset:0;stroke-opacity:1;paint-order:markers stroke fill"
       id="path7532-7-46"
       cx="-141.30305"
       cy="23.792715"
       r="4.9926114"
       inkscape:transform-center-x="-9.5510741"
       inkscape:transform-center-y="21.707017" />
    <circle
       style="opacity:0.98000004;fill:none;fill-opacity:1;stroke:#0000ff;stroke-width:0.30000001;stroke-linecap:square;stroke-linejoin:round;stroke-miterlimit:4;stroke-dasharray:none;stroke-dashoffset:0;stroke-opacity:1;paint-order:markers stroke fill"
       id="path7642"
       cx="-160.64845"
       cy="17.292751"
       r="1.2027129" />
    <circle
       style="opacity:0.98000004;fill:none;fill-opacity:1;stroke:#0000ff;stroke-width:0.30000001;stroke-linecap:square;stroke-linejoin:round;stroke-miterlimit:4;stroke-dasharray:none;stroke-dashoffset:0;stroke-opacity:1;paint-order:markers stroke fill"
       id="path7642-4"
       cx="-122.02797"
       cy="16.891857"
       r="1.2027129" />
    <circle
       style="opacity:0.98000004;fill:none;fill-opacity:1;stroke:#0000ff;stroke-width:0.30000001;stroke-linecap:square;stroke-linejoin:round;stroke-miterlimit:4;stroke-dasharray:none;stroke-dashoffset:0;stroke-opacity:1;paint-order:markers stroke fill"
       id="path7642-1"
       cx="-122.02797"
       cy="56.715004"
       r="1.2027129" />
    <circle
       style="opacity:0.98000004;fill:none;fill-opacity:1;stroke:#0000ff;stroke-width:0.30000001;stroke-linecap:square;stroke-linejoin:round;stroke-miterlimit:4;stroke-dasharray:none;stroke-dashoffset:0;stroke-opacity:1;paint-order:markers stroke fill"
       id="path7642-5"
       cx="-160.78203"
       cy="56.715004"
       r="1.2027129" />
    <path
       inkscape:connector-curvature="0"
       style="fill:none;stroke:#ff0000;stroke-width:0.26499999;stroke-linecap:square;stroke-linejoin:miter;stroke-miterlimit:4;stroke-dasharray:none;stroke-opacity:1;paint-order:markers stroke fill"
       d="m -191.30274,-12.978371 v 25.000033 h 5.00021 V 7.3361504 c 0,-0.1745999 0.43467,-0.3152201 0.97462,-0.3152201 h 3.05046 c 0.53994,0 0.97461,0.1406202 0.97461,0.3152201 V 21.705822 c 0,0.174609 -0.43467,0.31523 -0.97461,0.31523 h -3.05046 c -0.53995,0 -0.97462,-0.140621 -0.97462,-0.31523 v -4.684469 h -5.00021 V 57.0215 h 5.00021 v -4.685001 c 0,-0.174598 0.43467,-0.315219 0.97462,-0.315219 h 3.05046 c 0.53994,0 0.97461,0.140621 0.97461,0.315219 v 14.36968 c 0,0.174601 -0.43467,0.314701 -0.97461,0.314701 h -3.05046 c -0.53995,0 -0.97462,-0.1401 -0.97462,-0.314701 V 62.02171 h -5.00021 v 25.000032 h 25.00002 v -5.000228 h -4.02559 c -0.53995,0 -0.97462,-0.1406 -0.97462,-0.31523 v -4.36975 c 0,-0.174601 0.43467,-0.315222 0.97462,-0.315222 h 13.05139 c 0.53995,0 0.97514,0.140621 0.97514,0.315222 v 4.36975 c 0,0.17463 -0.43519,0.31523 -0.97514,0.31523 h -4.0256 v 5.000228 h 40.00015 v -5.000228 h -4.02611 c -0.53993,0 -0.97461,-0.1406 -0.97461,-0.31523 v -4.36975 c 0,-0.174601 0.43468,-0.315222 0.97461,-0.315222 h 13.05089 c 0.53994,0 0.97461,0.140621 0.97461,0.315222 v 4.36975 c 0,0.17463 -0.43467,0.31523 -0.97461,0.31523 h -4.02508 v 5.000228 h 25.000026 V 62.02171 h -4.999691 v 4.684469 c 0,0.174601 -0.434671,0.314701 -0.974609,0.314701 h -3.051486 c -0.53995,0 -0.97464,-0.1401 -0.97464,-0.314701 v -14.36968 c 0,-0.174598 0.43469,-0.315219 0.97464,-0.315219 h 3.051486 c 0.539938,0 0.974609,0.140621 0.974609,0.315219 V 57.0215 h 4.999691 V 17.021353 h -4.999691 v 4.684469 c 0,0.174609 -0.434671,0.31523 -0.974609,0.31523 h -3.051486 c -0.53995,0 -0.97464,-0.140621 -0.97464,-0.31523 V 7.3361504 c 0,-0.1745999 0.43469,-0.3152201 0.97464,-0.3152201 h 3.051486 c 0.539938,0 0.974609,0.1406202 0.974609,0.3152201 v 4.6855116 h 4.999691 v -25.000033 h -25.000026 v 5.0002102 h 4.02508 c 0.53994,0 0.97461,0.14011 0.97461,0.31471 v 4.3692501 c 0,0.1746001 -0.43467,0.31522 -0.97461,0.31522 h -13.05089 c -0.53993,0 -0.97461,-0.1406199 -0.97461,-0.31522 v -4.3692501 c 0,-0.1746 0.43468,-0.31471 0.97461,-0.31471 h 4.02611 v -5.0002102 h -40.00015 v 5.0002102 h 4.0256 c 0.53995,0 0.97514,0.14011 0.97514,0.31471 v 4.3692501 c 0,0.1746001 -0.43519,0.31522 -0.97514,0.31522 h -13.05139 c -0.53995,0 -0.97462,-0.1406199 -0.97462,-0.31522 v -4.3692501 c 0,-0.1746 0.43467,-0.31471 0.97462,-0.31471 h 4.02559 v -5.0002102 z"
       id="path4539-5-1-3-8-8-5-11" />
  </g>
</svg>
