<?xml version="1.0" encoding="UTF-8" standalone="no"?>
<!-- Created with Inkscape (http://www.inkscape.org/) -->

<svg
   xmlns:dc="http://purl.org/dc/elements/1.1/"
   xmlns:cc="http://creativecommons.org/ns#"
   xmlns:rdf="http://www.w3.org/1999/02/22-rdf-syntax-ns#"
   xmlns:svg="http://www.w3.org/2000/svg"
   xmlns="http://www.w3.org/2000/svg"
   xmlns:sodipodi="http://sodipodi.sourceforge.net/DTD/sodipodi-0.dtd"
   xmlns:inkscape="http://www.inkscape.org/namespaces/inkscape"
   width="100.26509mm"
   height="100.26512mm"
   viewBox="0 0 100.26509 100.26513"
   version="1.1"
   id="svg5021"
   sodipodi:docname="Buzzer-Corte-laser.svg"
   inkscape:version="0.92.1 r15371">
  <defs
     id="defs5015">
    <filter
       inkscape:collect="always"
       style="color-interpolation-filters:sRGB"
       id="filter5084"
       x="-0.024"
       width="1.048"
       y="-0.024"
       height="1.048">
      <feGaussianBlur
         inkscape:collect="always"
         stdDeviation="0.016002218"
         id="feGaussianBlur5086" />
    </filter>
    <filter
       inkscape:collect="always"
       style="color-interpolation-filters:sRGB"
       id="filter5088"
       x="-0.034193438"
       width="1.0683869"
       y="-0.034357563"
       height="1.0687151">
      <feGaussianBlur
         inkscape:collect="always"
         stdDeviation="0.016002218"
         id="feGaussianBlur5090" />
    </filter>
  </defs>
  <sodipodi:namedview
     id="base"
     pagecolor="#ffffff"
     bordercolor="#666666"
     borderopacity="1.0"
     inkscape:pageopacity="0.0"
     inkscape:pageshadow="2"
     inkscape:zoom="0.49497475"
     inkscape:cx="-323.73667"
     inkscape:cy="513.61625"
     inkscape:document-units="mm"
     inkscape:current-layer="layer1"
     showgrid="false"
     inkscape:window-width="1366"
     inkscape:window-height="705"
     inkscape:window-x="-8"
     inkscape:window-y="-8"
     inkscape:window-maximized="1"
     fit-margin-top="0"
     fit-margin-left="0"
     fit-margin-right="0"
     fit-margin-bottom="0" />
  <metadata
     id="metadata5018">
    <rdf:RDF>
      <cc:Work
         rdf:about="">
        <dc:format>image/svg+xml</dc:format>
        <dc:type
           rdf:resource="http://purl.org/dc/dcmitype/StillImage" />
        <dc:title></dc:title>
      </cc:Work>
    </rdf:RDF>
  </metadata>
  <g
     inkscape:label="Capa 1"
     inkscape:groupmode="layer"
     id="layer1"
     transform="translate(46.346904,-121.89928)">
    <circle
       style="opacity:0.98000004;fill:none;fill-opacity:1;stroke:#0000ff;stroke-width:0.30000001;stroke-linecap:square;stroke-linejoin:round;stroke-miterlimit:4;stroke-dasharray:none;stroke-dashoffset:0;stroke-opacity:1;paint-order:markers stroke fill"
       id="path5053"
       cx="3.7854249"
       cy="172.03194"
       r="17.447533" />
    <circle
       style="opacity:0.98000004;fill:none;fill-opacity:1;stroke:#0000ff;stroke-width:0.39047703;stroke-linecap:square;stroke-linejoin:round;stroke-miterlimit:4;stroke-dasharray:none;stroke-dashoffset:0;stroke-opacity:1;paint-order:markers stroke fill"
       id="path5055"
       cx="3.7854249"
       cy="172.03194"
       r="4.698524" />
    <text
       xml:space="preserve"
       style="font-style:normal;font-weight:normal;font-size:5.49427319px;line-height:1.25;font-family:sans-serif;letter-spacing:0px;word-spacing:0px;fill:#000000;fill-opacity:1;stroke:#0000ff;stroke-width:0.09423662;stroke-miterlimit:4;stroke-dasharray:none;stroke-opacity:1;filter:url(#filter5088)"
       x="505.99365"
       y="248.37663"
       id="text5059"
       inkscape:transform-center-x="-19.298616"
       inkscape:transform-center-y="-1.2865762"
       transform="matrix(3.1834759,0,0,3.1834759,-1609.4188,-606.75869)"><tspan
         sodipodi:role="line"
         id="tspan5057"
         x="505.99365"
         y="248.37663"
         style="font-size:1.83142436px;stroke:#0000ff;stroke-width:0.09423662;stroke-miterlimit:4;stroke-dasharray:none;stroke-opacity:1">+</tspan></text>
    <circle
       style="opacity:0.98000004;fill:none;fill-opacity:1;stroke:#0000ff;stroke-width:0.09423662;stroke-linecap:square;stroke-linejoin:round;stroke-miterlimit:4;stroke-dasharray:none;stroke-dashoffset:0;stroke-opacity:1;paint-order:markers stroke fill;filter:url(#filter5084)"
       id="path5055-4"
       cx="506.74304"
       cy="247.79358"
       r="0.80011088"
       inkscape:transform-center-x="-22.561431"
       inkscape:transform-center-y="-1.5041047"
       transform="matrix(3.1834759,0,0,3.1834759,-1609.4188,-606.75869)" />
    <path
       inkscape:connector-curvature="0"
       style="fill:none;stroke:#ff0000;stroke-width:0.26499999;stroke-linecap:square;stroke-linejoin:miter;stroke-miterlimit:4;stroke-dasharray:none;stroke-opacity:1;paint-order:markers stroke fill"
       d="m -46.214404,122.03178 v 25.00004 h 5.00021 v -4.68551 c 0,-0.1746 0.43467,-0.31522 0.97462,-0.31522 h 3.05046 c 0.53994,0 0.97461,0.14062 0.97461,0.31522 v 14.36967 c 0,0.17461 -0.43467,0.31523 -0.97461,0.31523 h -3.05046 c -0.53995,0 -0.97462,-0.14062 -0.97462,-0.31523 v -4.68447 h -5.00021 v 40.00015 h 5.00021 v -4.68501 c 0,-0.17459 0.43467,-0.31521 0.97462,-0.31521 h 3.05046 c 0.53994,0 0.97461,0.14062 0.97461,0.31521 v 14.36969 c 0,0.1746 -0.43467,0.3147 -0.97461,0.3147 h -3.05046 c -0.53995,0 -0.97462,-0.1401 -0.97462,-0.3147 v -4.68447 h -5.00021 v 25.00003 h 25.00002 v -5.00023 h -4.02559 c -0.53995,0 -0.97462,-0.1406 -0.97462,-0.31523 v -4.36975 c 0,-0.1746 0.43467,-0.31522 0.97462,-0.31522 h 13.05139 c 0.53995,0 0.97514,0.14062 0.97514,0.31522 v 4.36975 c 0,0.17463 -0.43519,0.31523 -0.97514,0.31523 h -4.0256 v 5.00023 h 40.000151 v -5.00023 h -4.026111 c -0.539938,0 -0.974609,-0.1406 -0.974609,-0.31523 v -4.36975 c 0,-0.1746 0.434671,-0.31522 0.974609,-0.31522 h 13.050882 c 0.539949,0 0.974619,0.14062 0.974619,0.31522 v 4.36975 c 0,0.17463 -0.43467,0.31523 -0.974619,0.31523 h -4.025072 v 5.00023 h 25.000022 v -25.00003 h -4.999691 v 4.68447 c 0,0.1746 -0.434679,0.3147 -0.974619,0.3147 h -3.05149 c -0.539941,0 -0.974622,-0.1401 -0.974622,-0.3147 v -14.36969 c 0,-0.17459 0.434681,-0.31521 0.974622,-0.31521 h 3.05149 c 0.53994,0 0.974619,0.14062 0.974619,0.31521 v 4.68501 h 4.999691 v -40.00015 h -4.999691 v 4.68447 c 0,0.17461 -0.434679,0.31523 -0.974619,0.31523 h -3.05149 c -0.539941,0 -0.974622,-0.14062 -0.974622,-0.31523 v -14.36967 c 0,-0.1746 0.434681,-0.31522 0.974622,-0.31522 h 3.05149 c 0.53994,0 0.974619,0.14062 0.974619,0.31522 v 4.68551 h 4.999691 V 122.03178 H 28.785666 v 5.00021 h 4.025072 c 0.539949,0 0.974619,0.14011 0.974619,0.31471 v 4.36925 c 0,0.1746 -0.43467,0.31522 -0.974619,0.31522 H 19.759856 c -0.539938,0 -0.974609,-0.14062 -0.974609,-0.31522 v -4.36925 c 0,-0.1746 0.434671,-0.31471 0.974609,-0.31471 h 4.026111 v -5.00021 h -40.000151 v 5.00021 h 4.0256 c 0.53995,0 0.97514,0.14011 0.97514,0.31471 v 4.36925 c 0,0.1746 -0.43519,0.31522 -0.97514,0.31522 h -13.05139 c -0.53995,0 -0.97462,-0.14062 -0.97462,-0.31522 v -4.36925 c 0,-0.1746 0.43467,-0.31471 0.97462,-0.31471 h 4.02559 v -5.00021 z"
       id="path4539-5-1-3-8-8-5-8" />
  </g>
</svg>
