<?xml version="1.0" encoding="UTF-8" standalone="no"?>
<!-- Created with Inkscape (http://www.inkscape.org/) -->

<svg
   xmlns:dc="http://purl.org/dc/elements/1.1/"
   xmlns:cc="http://creativecommons.org/ns#"
   xmlns:rdf="http://www.w3.org/1999/02/22-rdf-syntax-ns#"
   xmlns:svg="http://www.w3.org/2000/svg"
   xmlns="http://www.w3.org/2000/svg"
   xmlns:sodipodi="http://sodipodi.sourceforge.net/DTD/sodipodi-0.dtd"
   xmlns:inkscape="http://www.inkscape.org/namespaces/inkscape"
   width="100.26509mm"
   height="100.26511mm"
   viewBox="0 0 100.26509 100.26511"
   version="1.1"
   id="svg5021"
   inkscape:version="0.92.1 r15371"
   sodipodi:docname="CableArduino-Corte-laser.svg">
  <defs
     id="defs5015" />
  <sodipodi:namedview
     id="base"
     pagecolor="#ffffff"
     bordercolor="#666666"
     borderopacity="1.0"
     inkscape:pageopacity="0.0"
     inkscape:pageshadow="2"
     inkscape:zoom="0.7"
     inkscape:cx="30.459289"
     inkscape:cy="343.95501"
     inkscape:document-units="mm"
     inkscape:current-layer="layer1"
     showgrid="false"
     fit-margin-top="0"
     fit-margin-left="0"
     fit-margin-right="0"
     fit-margin-bottom="0"
     inkscape:window-width="1366"
     inkscape:window-height="705"
     inkscape:window-x="-8"
     inkscape:window-y="-8"
     inkscape:window-maximized="1" />
  <metadata
     id="metadata5018">
    <rdf:RDF>
      <cc:Work
         rdf:about="">
        <dc:format>image/svg+xml</dc:format>
        <dc:type
           rdf:resource="http://purl.org/dc/dcmitype/StillImage" />
        <dc:title></dc:title>
      </cc:Work>
    </rdf:RDF>
  </metadata>
  <g
     inkscape:label="Capa 1"
     inkscape:groupmode="layer"
     id="layer1"
     transform="translate(214.79743,-157.64708)">
    <rect
       style="opacity:0.95999995;fill:none;fill-opacity:1;stroke:#0000ff;stroke-width:0.30000001;stroke-linecap:square;stroke-linejoin:miter;stroke-miterlimit:3.9000001;stroke-dasharray:none;stroke-dashoffset:0;stroke-opacity:1;paint-order:fill markers stroke"
       id="rect10025"
       width="4.8108516"
       height="14.967093"
       x="-184.2186"
       y="174.93489"
       rx="0.80163074"
       ry="0.37073418" />
    <rect
       style="opacity:0.95999995;fill:none;fill-opacity:1;stroke:#0000ff;stroke-width:0.30000001;stroke-linecap:square;stroke-linejoin:miter;stroke-miterlimit:3.9000001;stroke-dasharray:none;stroke-dashoffset:0;stroke-opacity:1;paint-order:fill markers stroke"
       id="rect10035"
       width="1.6036073"
       height="33.675968"
       x="181.01138"
       y="189.90196"
       rx="1.8704361"
       ry="0.37073418"
       transform="scale(-1,1)" />
    <rect
       style="opacity:0.95999995;fill:none;fill-opacity:1;stroke:#0000ff;stroke-width:0.30000001;stroke-linecap:square;stroke-linejoin:miter;stroke-miterlimit:3.9000001;stroke-dasharray:none;stroke-dashoffset:0;stroke-opacity:1;paint-order:fill markers stroke"
       id="rect10025-8"
       width="4.8108516"
       height="14.967093"
       x="-184.2186"
       y="223.57794"
       rx="0.80163074"
       ry="0.37073418" />
    <rect
       style="opacity:0.95999995;fill:none;fill-opacity:1;stroke:#0000ff;stroke-width:0.30000001;stroke-linecap:square;stroke-linejoin:miter;stroke-miterlimit:3.9000001;stroke-dasharray:none;stroke-dashoffset:0;stroke-opacity:1;paint-order:fill markers stroke"
       id="rect10025-4"
       width="4.8108516"
       height="14.967093"
       x="-177.29105"
       y="174.93489"
       rx="0.80163074"
       ry="0.37073418" />
    <rect
       style="opacity:0.95999995;fill:none;fill-opacity:1;stroke:#0000ff;stroke-width:0.30000001;stroke-linecap:square;stroke-linejoin:miter;stroke-miterlimit:3.9000001;stroke-dasharray:none;stroke-dashoffset:0;stroke-opacity:1;paint-order:fill markers stroke"
       id="rect10035-2"
       width="1.6036073"
       height="33.675968"
       x="174.08383"
       y="189.90196"
       rx="1.8704361"
       ry="0.37073418"
       transform="scale(-1,1)" />
    <rect
       style="opacity:0.95999995;fill:none;fill-opacity:1;stroke:#0000ff;stroke-width:0.30000001;stroke-linecap:square;stroke-linejoin:miter;stroke-miterlimit:3.9000001;stroke-dasharray:none;stroke-dashoffset:0;stroke-opacity:1;paint-order:fill markers stroke"
       id="rect10025-8-3"
       width="4.8108516"
       height="14.967093"
       x="-177.29105"
       y="223.57794"
       rx="0.80163074"
       ry="0.37073418" />
    <rect
       style="opacity:0.95999995;fill:none;fill-opacity:1;stroke:#0000ff;stroke-width:0.30000001;stroke-linecap:square;stroke-linejoin:miter;stroke-miterlimit:3.9000001;stroke-dasharray:none;stroke-dashoffset:0;stroke-opacity:1;paint-order:fill markers stroke"
       id="rect10025-9"
       width="4.8108516"
       height="14.967093"
       x="-170.36349"
       y="174.93489"
       rx="0.80163074"
       ry="0.37073418" />
    <rect
       style="opacity:0.95999995;fill:none;fill-opacity:1;stroke:#0000ff;stroke-width:0.30000001;stroke-linecap:square;stroke-linejoin:miter;stroke-miterlimit:3.9000001;stroke-dasharray:none;stroke-dashoffset:0;stroke-opacity:1;paint-order:fill markers stroke"
       id="rect10035-21"
       width="1.6036073"
       height="33.675968"
       x="167.15628"
       y="189.90196"
       rx="1.8704361"
       ry="0.37073418"
       transform="scale(-1,1)" />
    <rect
       style="opacity:0.95999995;fill:none;fill-opacity:1;stroke:#0000ff;stroke-width:0.30000001;stroke-linecap:square;stroke-linejoin:miter;stroke-miterlimit:3.9000001;stroke-dasharray:none;stroke-dashoffset:0;stroke-opacity:1;paint-order:fill markers stroke"
       id="rect10025-8-9"
       width="4.8108516"
       height="14.967093"
       x="-170.36349"
       y="223.57794"
       rx="0.80163074"
       ry="0.37073418" />
    <rect
       style="opacity:0.95999995;fill:none;fill-opacity:1;stroke:#0000ff;stroke-width:0.30000001;stroke-linecap:square;stroke-linejoin:miter;stroke-miterlimit:3.9000001;stroke-dasharray:none;stroke-dashoffset:0;stroke-opacity:1;paint-order:fill markers stroke"
       id="rect10025-3"
       width="4.8108516"
       height="14.967093"
       x="-163.96512"
       y="174.93489"
       rx="0.80163074"
       ry="0.37073418" />
    <rect
       style="opacity:0.95999995;fill:none;fill-opacity:1;stroke:#0000ff;stroke-width:0.30000001;stroke-linecap:square;stroke-linejoin:miter;stroke-miterlimit:3.9000001;stroke-dasharray:none;stroke-dashoffset:0;stroke-opacity:1;paint-order:fill markers stroke"
       id="rect10035-4"
       width="1.6036073"
       height="33.675968"
       x="160.7579"
       y="189.90196"
       rx="1.8704361"
       ry="0.37073418"
       transform="scale(-1,1)" />
    <rect
       style="opacity:0.95999995;fill:none;fill-opacity:1;stroke:#0000ff;stroke-width:0.30000001;stroke-linecap:square;stroke-linejoin:miter;stroke-miterlimit:3.9000001;stroke-dasharray:none;stroke-dashoffset:0;stroke-opacity:1;paint-order:fill markers stroke"
       id="rect10025-8-38"
       width="4.8108516"
       height="14.967093"
       x="-163.96512"
       y="223.57794"
       rx="0.80163074"
       ry="0.37073418" />
    <rect
       style="opacity:0.95999995;fill:none;fill-opacity:1;stroke:#0000ff;stroke-width:0.30000001;stroke-linecap:square;stroke-linejoin:miter;stroke-miterlimit:3.9000001;stroke-dasharray:none;stroke-dashoffset:0;stroke-opacity:1;paint-order:fill markers stroke"
       id="rect10025-4-4"
       width="4.8108516"
       height="14.967093"
       x="-157.03757"
       y="174.93489"
       rx="0.80163074"
       ry="0.37073418" />
    <rect
       style="opacity:0.95999995;fill:none;fill-opacity:1;stroke:#0000ff;stroke-width:0.30000001;stroke-linecap:square;stroke-linejoin:miter;stroke-miterlimit:3.9000001;stroke-dasharray:none;stroke-dashoffset:0;stroke-opacity:1;paint-order:fill markers stroke"
       id="rect10035-2-7"
       width="1.6036073"
       height="33.675968"
       x="153.83035"
       y="189.90196"
       rx="1.8704361"
       ry="0.37073418"
       transform="scale(-1,1)" />
    <rect
       style="opacity:0.95999995;fill:none;fill-opacity:1;stroke:#0000ff;stroke-width:0.30000001;stroke-linecap:square;stroke-linejoin:miter;stroke-miterlimit:3.9000001;stroke-dasharray:none;stroke-dashoffset:0;stroke-opacity:1;paint-order:fill markers stroke"
       id="rect10025-8-3-4"
       width="4.8108516"
       height="14.967093"
       x="-157.03757"
       y="223.57794"
       rx="0.80163074"
       ry="0.37073418" />
    <rect
       style="opacity:0.95999995;fill:none;fill-opacity:1;stroke:#0000ff;stroke-width:0.30000001;stroke-linecap:square;stroke-linejoin:miter;stroke-miterlimit:3.9000001;stroke-dasharray:none;stroke-dashoffset:0;stroke-opacity:1;paint-order:fill markers stroke"
       id="rect10025-9-5"
       width="4.8108516"
       height="14.967093"
       x="-150.11002"
       y="174.93489"
       rx="0.80163074"
       ry="0.37073418" />
    <rect
       style="opacity:0.95999995;fill:none;fill-opacity:1;stroke:#0000ff;stroke-width:0.30000001;stroke-linecap:square;stroke-linejoin:miter;stroke-miterlimit:3.9000001;stroke-dasharray:none;stroke-dashoffset:0;stroke-opacity:1;paint-order:fill markers stroke"
       id="rect10035-21-7"
       width="1.6036073"
       height="33.675968"
       x="146.9028"
       y="189.90196"
       rx="1.8704361"
       ry="0.37073418"
       transform="scale(-1,1)" />
    <rect
       style="opacity:0.95999995;fill:none;fill-opacity:1;stroke:#0000ff;stroke-width:0.30000001;stroke-linecap:square;stroke-linejoin:miter;stroke-miterlimit:3.9000001;stroke-dasharray:none;stroke-dashoffset:0;stroke-opacity:1;paint-order:fill markers stroke"
       id="rect10025-8-9-5"
       width="4.8108516"
       height="14.967093"
       x="-150.11002"
       y="223.57794"
       rx="0.80163074"
       ry="0.37073418" />
    <path
       inkscape:connector-curvature="0"
       style="fill:none;stroke:#ff0000;stroke-width:0.26499999;stroke-linecap:square;stroke-linejoin:miter;stroke-miterlimit:4;stroke-dasharray:none;stroke-opacity:1;paint-order:markers stroke fill"
       d="m -214.66493,157.77958 v 25.00003 h 5.00021 v -4.68551 c 0,-0.1746 0.43467,-0.31522 0.97462,-0.31522 h 3.05046 c 0.53994,0 0.97461,0.14062 0.97461,0.31522 v 14.36967 c 0,0.17461 -0.43467,0.31523 -0.97461,0.31523 h -3.05046 c -0.53995,0 -0.97462,-0.14062 -0.97462,-0.31523 v -4.68446 h -5.00021 v 40.00015 h 5.00021 v -4.68501 c 0,-0.17459 0.43467,-0.31521 0.97462,-0.31521 h 3.05046 c 0.53994,0 0.97461,0.14062 0.97461,0.31521 v 14.36968 c 0,0.17461 -0.43467,0.31471 -0.97461,0.31471 h -3.05046 c -0.53995,0 -0.97462,-0.1401 -0.97462,-0.31471 v -4.68446 h -5.00021 v 25.00002 h 25.00002 v -5.00022 h -4.02559 c -0.53995,0 -0.97462,-0.14061 -0.97462,-0.31523 v -4.36976 c 0,-0.17459 0.43467,-0.31522 0.97462,-0.31522 h 13.05139 c 0.53995,0 0.97514,0.14063 0.97514,0.31522 v 4.36976 c 0,0.17462 -0.43519,0.31523 -0.97514,0.31523 h -4.02559 v 5.00022 h 40.00014 v -5.00022 h -4.02611 c -0.53994,0 -0.97461,-0.14061 -0.97461,-0.31523 v -4.36976 c 0,-0.17459 0.43467,-0.31522 0.97461,-0.31522 h 13.05088 c 0.53995,0 0.97462,0.14063 0.97462,0.31522 v 4.36976 c 0,0.17462 -0.43467,0.31523 -0.97462,0.31523 h -4.02507 v 5.00022 h 25.00002 v -25.00002 h -4.99969 v 4.68446 c 0,0.17461 -0.43468,0.31471 -0.97462,0.31471 h -3.05149 c -0.53994,0 -0.97462,-0.1401 -0.97462,-0.31471 v -14.36968 c 0,-0.17459 0.43468,-0.31521 0.97462,-0.31521 h 3.05149 c 0.53994,0 0.97462,0.14062 0.97462,0.31521 v 4.68501 h 4.99969 v -40.00015 h -4.99969 v 4.68446 c 0,0.17461 -0.43468,0.31523 -0.97462,0.31523 h -3.05149 c -0.53994,0 -0.97462,-0.14062 -0.97462,-0.31523 V 178.0941 c 0,-0.1746 0.43468,-0.31522 0.97462,-0.31522 h 3.05149 c 0.53994,0 0.97462,0.14062 0.97462,0.31522 v 4.68551 h 4.99969 v -25.00003 h -25.00002 v 5.00021 h 4.02507 c 0.53995,0 0.97462,0.14011 0.97462,0.31471 v 4.36925 c 0,0.1746 -0.43467,0.31522 -0.97462,0.31522 h -13.05088 c -0.53994,0 -0.97461,-0.14062 -0.97461,-0.31522 v -4.36925 c 0,-0.1746 0.43467,-0.31471 0.97461,-0.31471 h 4.02611 v -5.00021 h -40.00014 v 5.00021 h 4.02559 c 0.53995,0 0.97514,0.14011 0.97514,0.31471 v 4.36925 c 0,0.1746 -0.43519,0.31522 -0.97514,0.31522 h -13.05139 c -0.53995,0 -0.97462,-0.14062 -0.97462,-0.31522 v -4.36925 c 0,-0.1746 0.43467,-0.31471 0.97462,-0.31471 h 4.02559 v -5.00021 z"
       id="path4539-5-1-3-8-8-2" />
  </g>
</svg>
