<?xml version="1.0" encoding="UTF-8" standalone="no"?>
<!-- Created with Inkscape (http://www.inkscape.org/) -->

<svg
   xmlns:dc="http://purl.org/dc/elements/1.1/"
   xmlns:cc="http://creativecommons.org/ns#"
   xmlns:rdf="http://www.w3.org/1999/02/22-rdf-syntax-ns#"
   xmlns:svg="http://www.w3.org/2000/svg"
   xmlns="http://www.w3.org/2000/svg"
   xmlns:sodipodi="http://sodipodi.sourceforge.net/DTD/sodipodi-0.dtd"
   xmlns:inkscape="http://www.inkscape.org/namespaces/inkscape"
   width="100.26509mm"
   height="100.26508mm"
   viewBox="0 0 100.26509 100.26509"
   version="1.1"
   id="svg5021"
   inkscape:version="0.92.1 r15371"
   sodipodi:docname="Motor-Corte-laser.svg">
  <defs
     id="defs5015" />
  <sodipodi:namedview
     id="base"
     pagecolor="#ffffff"
     bordercolor="#666666"
     borderopacity="1.0"
     inkscape:pageopacity="0.0"
     inkscape:pageshadow="2"
     inkscape:zoom="0.49497475"
     inkscape:cx="56.228154"
     inkscape:cy="300.62139"
     inkscape:document-units="mm"
     inkscape:current-layer="layer1"
     showgrid="false"
     fit-margin-top="0"
     fit-margin-left="0"
     fit-margin-right="0"
     fit-margin-bottom="0"
     inkscape:window-width="1366"
     inkscape:window-height="705"
     inkscape:window-x="-8"
     inkscape:window-y="-8"
     inkscape:window-maximized="1" />
  <metadata
     id="metadata5018">
    <rdf:RDF>
      <cc:Work
         rdf:about="">
        <dc:format>image/svg+xml</dc:format>
        <dc:type
           rdf:resource="http://purl.org/dc/dcmitype/StillImage" />
        <dc:title></dc:title>
      </cc:Work>
    </rdf:RDF>
  </metadata>
  <g
     inkscape:label="Capa 1"
     inkscape:groupmode="layer"
     id="layer1"
     transform="translate(245.50172,-65.544413)">
    <path
       id="path8472"
       style="fill:#000000;stroke:#0000ff;stroke-width:0.30000001;stroke-miterlimit:4;stroke-dasharray:none;stroke-opacity:1"
       d="m -195.36945,90.49039 c -3.26834,0 -7.59748,1.07335 -9.99378,2.47768 -4.1187,2.41371 -7.51778,6.67724 -8.86816,11.12305 l -0.78595,2.58575 h -2.05052 c -2.63645,0 -3.89884,1.07783 -3.89884,3.32906 0,2.33615 0.96737,3.21735 3.78269,3.44522 l 2.34606,0.18968 0.51833,2.03067 c 0.67154,2.63318 2.17505,5.36815 4.17528,7.5933 1.1231,1.24938 1.59983,2.11236 1.59983,2.89674 0,0.61453 0.32141,1.52635 0.71464,2.02625 0.51428,0.65383 0.7681,1.74439 0.90357,3.88635 0.23324,3.68778 0.52968,3.96428 4.2569,3.96428 1.49594,0 2.77627,0.1684 2.84529,0.37423 0.0377,0.11239 0.0512,1.95077 0.0515,4.35394 0.32693,2e-5 0.65383,6e-5 0.98077,0 0.0583,-1e-5 0.11666,-2e-5 0.17498,0 0.0829,-2.88103 0.18503,-4.69565 0.30512,-4.77007 0.63082,-0.39101 -1.25048,-0.70043 -4.29072,-0.70582 -3.45148,-0.006 -3.68343,-0.24442 -3.68343,-3.77973 0,-1.74808 -0.18512,-2.55289 -0.75286,-3.27465 -0.44291,-0.56307 -0.75285,-1.52711 -0.75285,-2.34165 0,-1.05955 -0.27381,-1.64409 -1.1668,-2.49019 -1.91136,-1.811 -3.46008,-4.319 -4.51862,-7.31685 l -0.99695,-2.82323 -2.0233,-0.21908 c -2.56827,-0.27826 -3.1378,-0.54249 -3.66579,-1.7013 -0.64805,-1.42232 -0.52804,-1.98859 0.67345,-3.1901 0.94293,-0.94293 1.3889,-1.10061 3.12099,-1.10061 h 2.02184 l 0.46539,-1.73952 c 1.81354,-6.78057 7.48069,-12.23491 14.41021,-13.86835 3.01926,-0.71171 5.16045,-0.71765 8.11016,-0.0221 6.86697,1.61937 12.09077,6.41396 14.16613,13.0008 l 0.82858,2.62913 h 2.00861 c 1.71804,0 2.16728,0.15942 3.10849,1.10063 1.2015,1.20149 1.32151,1.76776 0.67346,3.19008 -0.52799,1.15881 -1.09752,1.42304 -3.66579,1.70129 l -2.02331,0.21908 -1.00505,2.82323 c -1.12434,3.15763 -2.31731,5.15728 -4.32232,7.24702 -1.00732,1.04988 -1.355,1.73748 -1.355,2.67839 0,0.69622 -0.33878,1.69687 -0.75287,2.22328 -0.56774,0.72176 -0.75285,1.52657 -0.75285,3.27465 0,3.58749 -0.19626,3.77459 -3.96575,3.77459 -1.87332,0 -3.18643,0.15512 -3.18643,0.37643 0,0.56226 6.12418,0.47826 6.86104,-0.094 0.43315,-0.33648 0.65484,-1.30676 0.77712,-3.40625 0.13544,-2.32449 0.33785,-3.1136 0.97195,-3.78856 0.50299,-0.53541 0.80065,-1.34467 0.80065,-2.17476 0,-0.94764 0.28162,-1.58002 0.99475,-2.23433 1.68428,-1.54531 3.88648,-5.27109 4.7017,-7.95501 l 0.77638,-2.55635 h 2.05052 c 2.66366,0 3.89884,-1.07324 3.89884,-3.38786 0,-2.31464 -1.23518,-3.38787 -3.89884,-3.38787 h -2.05052 l -0.77418,-2.5409 c -2.50186,-8.21444 -10.01381,-13.64559 -18.8737,-13.64559 z m 0,3.12759 c -1.44312,0 -2.88606,0.33521 -3.86577,1.00653 -1.63706,1.12172 -2.93087,3.28187 -2.85336,4.76345 l 0.0559,1.07783 0.16321,-1.09548 c 0.0895,-0.60251 0.44384,-1.53417 0.78815,-2.07036 3.11259,-4.84712 9.29278,-4.44446 11.89063,0.77491 0.55142,1.10785 0.89187,1.59101 0.75654,1.07342 -0.45906,-1.7559 -1.70074,-3.58588 -3.06952,-4.52377 -0.97969,-0.67132 -2.42265,-1.00653 -3.86575,-1.00653 z m 0.0926,0.70802 c -0.88368,0.0266 -1.79964,0.27473 -2.72471,0.75139 -2.27126,1.17032 -3.39082,2.9118 -3.39082,5.27444 0,2.7192 1.43835,4.97482 3.76431,5.90229 2.32754,0.92812 5.04518,0.22524 6.94631,-1.79612 0.93483,-0.99396 1.13498,-1.55569 1.25648,-3.52829 0.12236,-1.98606 0.01,-2.54304 -0.73522,-3.62902 -1.38438,-2.01833 -3.1723,-3.03307 -5.11635,-2.97469 z m -0.0287,0.47054 c 0.57831,-0.0155 1.09644,0.14608 1.95127,0.52421 4.96517,2.19633 4.66903,8.82939 -0.47128,10.55107 -1.58599,0.53121 -2.16717,0.50685 -3.68196,-0.15661 -1.37345,-0.60153 -2.95369,-2.51234 -3.33199,-4.02824 -0.67847,-2.71872 1.37703,-5.88173 4.34218,-6.68016 0.47596,-0.12819 0.84479,-0.20099 1.19178,-0.21027 z m -0.16322,1.67776 c -0.9258,0.0221 -1.82812,0.40328 -2.56442,1.13959 -0.60519,0.60518 -1.09775,1.3251 -1.09474,1.59982 0.004,0.37346 0.10173,0.35673 0.38746,-0.0654 0.38271,-0.56555 0.36928,-0.39819 -0.18968,2.35562 -0.20001,0.98531 0.0363,1.41859 1.20942,2.21961 0.50607,0.34556 1.55189,0.55565 2.59164,0.52054 1.44801,-0.0489 1.92594,-0.26346 2.82175,-1.26604 0.74767,-0.83678 1.06726,-1.57996 1.04107,-2.424 -0.0376,-1.2081 -0.041,-1.20582 -0.386,0.26614 -0.4802,2.04899 -0.56013,2 -0.53744,-0.32863 0.0114,-1.11181 0.14418,-1.82639 0.2963,-1.58806 0.2078,0.32557 0.27798,0.32399 0.28231,-0.004 0.003,-0.2404 -0.51508,-0.87562 -1.15208,-1.41162 -0.83059,-0.6989 -1.77979,-1.03523 -2.70559,-1.01312 z m -0.0169,0.47201 c 0.8677,-0.0311 1.68215,0.11283 1.8101,0.31982 0.12791,0.20703 0.18015,0.35091 0.1161,0.31981 -0.064,-0.0311 -0.87845,-0.17496 -1.8101,-0.31981 l -1.69392,-0.26321 z m -1.76599,0.31982 c 0.0195,0.0195 -0.0945,0.17202 -0.32862,0.47054 -0.49176,0.62704 -0.80066,0.82667 -0.80066,0.51685 0,-0.0781 0.29643,-0.37461 0.65877,-0.65876 0.29851,-0.2341 0.4511,-0.34807 0.47051,-0.32863 z m 2.14684,0.53671 c 0.44673,0.0128 0.73602,0.11979 0.59699,0.34481 -0.13572,0.21953 0.0171,0.27981 0.36688,0.14557 1.37798,-0.52878 2.19009,2.52683 1.04695,3.93856 -0.97597,1.20526 -3.26786,1.22798 -4.45173,0.0441 -0.71811,-0.71812 -0.84131,-1.12428 -0.63671,-2.10272 0.13957,-0.6671 0.4904,-1.46144 0.78007,-1.76451 0.37032,-0.38744 1.553,-0.62705 2.29755,-0.60583 z m -2.26299,0.97489 c -0.26938,0.003 -0.22311,0.1513 0.11624,0.37055 0.72316,0.46734 0.85348,0.46734 0.56464,0 -0.1279,-0.20703 -0.43424,-0.37372 -0.6808,-0.37055 z m -1.9667,1.29692 c -0.0682,-0.0253 -0.11624,0.19116 -0.11624,0.57935 -1e-5,0.51759 0.0852,0.72933 0.18968,0.47054 0.10442,-0.2588 0.10442,-0.68229 0,-0.94108 -0.0262,-0.0647 -0.0508,-0.1003 -0.0736,-0.10884 z m -2.82616,0.95577 c -0.3377,0 0.0835,1.73693 0.69477,2.86514 0.56971,1.05148 2.38643,2.68478 3.4614,3.11217 0.51758,0.20578 1.36455,0.36759 1.88214,0.35951 0.78448,-0.0128 0.73919,-0.0625 -0.27277,-0.3029 -2.51446,-0.59742 -4.79403,-2.70037 -5.21413,-4.81051 -0.13403,-0.67287 -0.38186,-1.22341 -0.55141,-1.22341 z m 13.45443,0.56833 c -0.0518,0.0114 -0.13359,0.22164 -0.25953,0.63964 -0.69546,2.30709 -2.55385,4.01303 -5.27223,4.83992 -0.78991,0.24028 -0.81802,0.29199 -0.17572,0.31909 0.42197,0.0178 1.52168,-0.34879 2.44459,-0.81462 1.74566,-0.8811 3.38794,-3.14993 3.33714,-4.61127 -0.007,-0.21163 -0.0239,-0.33478 -0.0536,-0.3654 -0.006,-0.007 -0.0128,-0.009 -0.0206,-0.007 z m -9.94673,0.24335 c 0.0393,0.01 0.0915,0.095 0.15513,0.25439 0.11012,0.27577 0.73226,0.82561 1.38221,1.22192 0.64995,0.39633 0.99255,0.7212 0.76168,0.72199 -0.63193,10e-4 -2.40796,-1.4955 -2.37401,-2.00199 0.01,-0.14085 0.0359,-0.20622 0.075,-0.19631 z m 5.32222,0.11169 c -0.029,-0.006 -0.0659,-0.006 -0.11025,7.9e-4 -0.0592,0.009 -0.13089,0.0296 -0.21469,0.0618 -0.32132,0.12335 -0.58449,0.29065 -0.58449,0.37201 0,0.30488 0.71706,0.13346 0.93813,-0.22423 0.0741,-0.12008 0.0586,-0.19258 -0.0287,-0.21028 z m -2.33577,0.2338 c -0.14631,-0.004 -0.36504,0.10855 -0.55655,0.30144 -0.36901,0.37176 -0.32548,0.41528 0.211,0.21101 0.37125,-0.14142 0.58055,-0.3517 0.46466,-0.46761 -0.029,-0.029 -0.0703,-0.0434 -0.11908,-0.0448 z m 3.30847,0.34849 c 0.0195,0.0195 -0.0945,0.17202 -0.32865,0.47054 -0.49175,0.62704 -0.80064,0.82666 -0.80064,0.51685 0,-0.0781 0.29644,-0.3746 0.65875,-0.65875 0.29852,-0.23411 0.4511,-0.34807 0.47054,-0.32864 z m -25.03039,5.66704 c -0.21179,-0.006 -0.46308,0.0612 -0.80947,0.18232 -1.1961,0.41827 -1.66683,2.05648 -0.86756,3.01953 0.5941,0.71584 2.03722,0.68969 2.77691,-0.0499 0.77687,-0.77685 0.74703,-1.39208 -0.12136,-2.46443 -0.38332,-0.47337 -0.62561,-0.67894 -0.97856,-0.68742 z m 44.0379,0 c -0.35296,0.009 -0.59527,0.21405 -0.97858,0.68742 -0.86833,1.07235 -0.89816,1.68758 -0.12137,2.46443 0.32535,0.32535 0.98197,0.59186 1.45942,0.59186 2.00626,0 2.37126,-2.88952 0.44994,-3.56139 -0.34639,-0.12107 -0.59768,-0.18741 -0.80946,-0.18232 z m 0.27569,0.6536 c 0.75282,0.0563 1.50133,0.93579 1.21239,1.68879 -0.30311,0.78986 -1.01513,1.02458 -1.79099,0.59038 -0.84813,-0.47464 -0.80846,-1.70545 0.0699,-2.17551 0.16152,-0.0865 0.33503,-0.11666 0.50875,-0.10372 z m -44.40845,0.11695 c 0.56082,0.0322 1.03372,0.4481 1.03372,1.06606 0,1.11071 -1.29332,1.68945 -2.06081,0.92197 -0.68696,-0.68696 -0.61149,-1.23733 0.24409,-1.77701 0.25505,-0.16088 0.52809,-0.22563 0.783,-0.21102 z m 23.05488,26.52068 -0.84696,0.0418 c -2.45879,0.12164 -2.60053,0.17246 -1.44397,0.51833 0.60338,0.18043 1.2386,0.24074 1.41161,0.13387 0.17302,-0.10698 0.31288,0.11226 0.311,0.48671 -2.7e-4,0.0814 0.007,2.26212 0.0128,4.01206 0.14237,-0.0327 0.28478,-0.0652 0.42715,-0.0977 0.0543,7.9e-4 0.10486,0.001 0.15808,0.001 z m 1.17121,0.67345 c -0.13502,-0.0228 -0.23013,0.0606 -0.23013,0.22497 0,0.21926 0.16938,0.39851 0.37642,0.39851 0.20704,0 0.37642,-0.0748 0.37642,-0.16616 0,-0.0913 -0.16938,-0.27054 -0.37642,-0.3985 -0.0518,-0.032 -0.10129,-0.0512 -0.14629,-0.0588 z m 1.85934,0.0588 -0.0603,4.00398 c 0.0319,7.9e-4 0.0571,-1.7e-4 0.0905,7.9e-4 z m -3.00041,4.48113 c -0.025,0.003 -0.0499,0.006 -0.075,0.009 -0.11367,0.034 -0.22769,0.0674 -0.34114,0.10215 0.0266,0.003 0.0256,0.004 0.0543,0.007 0.0634,-0.0114 0.12691,-0.0239 0.19042,-0.0353 0.0566,-0.0248 0.11381,-0.0481 0.17131,-0.0706 z m -0.17131,0.0831 c -0.0358,0.0157 -0.0724,0.0296 -0.10812,0.0455 -8e-4,2e-4 0.0165,0.003 0.0128,0.003 0.10414,-0.0265 0.18279,-0.0478 0.26687,-0.0706 v -0.009 c -0.0573,0.01 -0.11467,0.0212 -0.17203,0.0316 z m -0.28526,0.0404 c -0.036,0.0114 -0.0721,0.0215 -0.10811,0.0323 0.0542,-0.0114 0.10883,-0.0198 0.16321,-0.0302 -0.0205,-7.9e-4 -0.0364,-10e-4 -0.0552,-0.003 z m 0.17279,0.007 c -0.01,0.004 -0.0202,0.009 -0.0302,0.0128 0.0183,-0.004 0.0283,-0.007 0.0464,-0.0114 -0.007,-9e-5 -0.009,-7.9e-4 -0.0162,-7.9e-4 z"
       inkscape:connector-curvature="0" />
    <path
       inkscape:connector-curvature="0"
       style="fill:none;stroke:#ff0000;stroke-width:0.26499999;stroke-linecap:square;stroke-linejoin:miter;stroke-miterlimit:4;stroke-dasharray:none;stroke-opacity:1;paint-order:markers stroke fill"
       d="M -245.36922,65.676913 V 90.67694 h 5.00021 v -4.68551 c 0,-0.1746 0.43467,-0.31522 0.97462,-0.31522 h 3.05046 c 0.53994,0 0.97461,0.14062 0.97461,0.31522 v 14.36965 c 0,0.17461 -0.43467,0.31523 -0.97461,0.31523 h -3.05046 c -0.53995,0 -0.97462,-0.14062 -0.97462,-0.31523 v -4.68447 h -5.00021 v 40.00015 h 5.00021 v -4.685 c 0,-0.1746 0.43467,-0.31522 0.97462,-0.31522 h 3.05046 c 0.53994,0 0.97461,0.14062 0.97461,0.31522 v 14.36968 c 0,0.1746 -0.43467,0.3147 -0.97461,0.3147 h -3.05046 c -0.53995,0 -0.97462,-0.1401 -0.97462,-0.3147 v -4.68447 h -5.00021 V 165.677 h 25.00002 v -5.00023 h -4.02559 c -0.53995,0 -0.97462,-0.1406 -0.97462,-0.31523 v -4.36975 c 0,-0.1746 0.43467,-0.31522 0.97462,-0.31522 h 13.05139 c 0.53995,0 0.97514,0.14062 0.97514,0.31522 v 4.36975 c 0,0.17463 -0.43519,0.31523 -0.97514,0.31523 h -4.0256 v 5.00023 h 40.00015 v -5.00023 h -4.02611 c -0.53994,0 -0.97461,-0.1406 -0.97461,-0.31523 v -4.36975 c 0,-0.1746 0.43467,-0.31522 0.97461,-0.31522 h 13.05088 c 0.53995,0 0.97462,0.14062 0.97462,0.31522 v 4.36975 c 0,0.17463 -0.43467,0.31523 -0.97462,0.31523 h -4.02507 v 5.00023 h 25.00002 v -25.00003 h -4.99969 v 4.68447 c 0,0.1746 -0.43468,0.3147 -0.97462,0.3147 h -3.05149 c -0.53994,0 -0.97462,-0.1401 -0.97462,-0.3147 v -14.36968 c 0,-0.1746 0.43468,-0.31522 0.97462,-0.31522 h 3.05149 c 0.53994,0 0.97462,0.14062 0.97462,0.31522 v 4.685 h 4.99969 V 95.67661 h -4.99969 v 4.68447 c 0,0.17461 -0.43468,0.31523 -0.97462,0.31523 h -3.05149 c -0.53994,0 -0.97462,-0.14062 -0.97462,-0.31523 V 85.99143 c 0,-0.1746 0.43468,-0.31522 0.97462,-0.31522 h 3.05149 c 0.53994,0 0.97462,0.14062 0.97462,0.31522 v 4.68551 h 4.99969 V 65.676913 h -25.00002 v 5.00021 h 4.02507 c 0.53995,0 0.97462,0.14011 0.97462,0.31471 v 4.36925 c 0,0.1746 -0.43467,0.31522 -0.97462,0.31522 h -13.05088 c -0.53994,0 -0.97461,-0.14062 -0.97461,-0.31522 v -4.36925 c 0,-0.1746 0.43467,-0.31471 0.97461,-0.31471 h 4.02611 v -5.00021 H -215.369 v 5.00021 h 4.0256 c 0.53995,0 0.97514,0.14011 0.97514,0.31471 v 4.36925 c 0,0.1746 -0.43519,0.31522 -0.97514,0.31522 h -13.05139 c -0.53995,0 -0.97462,-0.14062 -0.97462,-0.31522 v -4.36925 c 0,-0.1746 0.43467,-0.31471 0.97462,-0.31471 h 4.02559 v -5.00021 z"
       id="path4539-5-1-3-8-8-5-18" />
  </g>
</svg>
