<?xml version="1.0" encoding="UTF-8" standalone="no"?>
<!-- Created with Inkscape (http://www.inkscape.org/) -->

<svg
   xmlns:dc="http://purl.org/dc/elements/1.1/"
   xmlns:cc="http://creativecommons.org/ns#"
   xmlns:rdf="http://www.w3.org/1999/02/22-rdf-syntax-ns#"
   xmlns:svg="http://www.w3.org/2000/svg"
   xmlns="http://www.w3.org/2000/svg"
   xmlns:sodipodi="http://sodipodi.sourceforge.net/DTD/sodipodi-0.dtd"
   xmlns:inkscape="http://www.inkscape.org/namespaces/inkscape"
   width="100.2651mm"
   height="100.26511mm"
   viewBox="0 0 100.2651 100.26511"
   version="1.1"
   id="svg5021"
   inkscape:version="0.92.1 r15371"
   sodipodi:docname="Pilas-Corte-laser.svg">
  <defs
     id="defs5015" />
  <sodipodi:namedview
     id="base"
     pagecolor="#ffffff"
     bordercolor="#666666"
     borderopacity="1.0"
     inkscape:pageopacity="0.0"
     inkscape:pageshadow="2"
     inkscape:zoom="0.7"
     inkscape:cx="137.74152"
     inkscape:cy="236.95147"
     inkscape:document-units="mm"
     inkscape:current-layer="layer1"
     showgrid="false"
     fit-margin-top="0"
     fit-margin-left="0"
     fit-margin-right="0"
     fit-margin-bottom="0"
     inkscape:window-width="1366"
     inkscape:window-height="705"
     inkscape:window-x="-8"
     inkscape:window-y="-8"
     inkscape:window-maximized="1" />
  <metadata
     id="metadata5018">
    <rdf:RDF>
      <cc:Work
         rdf:about="">
        <dc:format>image/svg+xml</dc:format>
        <dc:type
           rdf:resource="http://purl.org/dc/dcmitype/StillImage" />
        <dc:title></dc:title>
      </cc:Work>
    </rdf:RDF>
  </metadata>
  <g
     inkscape:label="Capa 1"
     inkscape:groupmode="layer"
     id="layer1"
     transform="translate(243.18252,-83.978594)">
    <path
       style="fill:none;stroke:#ff0000;stroke-width:0.26499999;stroke-linecap:square;stroke-linejoin:miter;stroke-miterlimit:4;stroke-dasharray:none;stroke-opacity:1;paint-order:markers stroke fill"
       d="m -243.05002,84.111094 v 25.000026 h 5.00021 v -4.6855 c 0,-0.17461 0.43468,-0.31523 0.97462,-0.31523 h 3.05046 c 0.53994,0 0.97462,0.14062 0.97462,0.31523 v 14.36966 c 0,0.17461 -0.43468,0.31523 -0.97462,0.31523 h -3.05046 c -0.53994,0 -0.97462,-0.14062 -0.97462,-0.31523 v -4.68447 h -5.00021 v 40.00016 h 5.00021 v -4.68501 c 0,-0.17459 0.43468,-0.31522 0.97462,-0.31522 h 3.05046 c 0.53994,0 0.97462,0.14063 0.97462,0.31522 v 14.36968 c 0,0.1746 -0.43468,0.3147 -0.97462,0.3147 h -3.05046 c -0.53994,0 -0.97462,-0.1401 -0.97462,-0.3147 v -4.68447 h -5.00021 V 184.1112 H -218.05 v -5.00023 h -4.02559 c -0.53994,0 -0.97462,-0.1406 -0.97462,-0.31522 v -4.36976 c 0,-0.1746 0.43468,-0.31522 0.97462,-0.31522 h 13.0514 c 0.53994,0 0.97514,0.14062 0.97514,0.31522 v 4.36976 c 0,0.17462 -0.4352,0.31522 -0.97514,0.31522 h -4.02559 v 5.00023 h 40.00014 v -5.00023 h -4.02611 c -0.53994,0 -0.97462,-0.1406 -0.97462,-0.31522 v -4.36976 c 0,-0.1746 0.43468,-0.31522 0.97462,-0.31522 h 13.05088 c 0.53994,0 0.97462,0.14062 0.97462,0.31522 v 4.36976 c 0,0.17462 -0.43468,0.31522 -0.97462,0.31522 h -4.02508 v 5.00023 h 25.00003 v -25.00003 h -4.9997 v 4.68447 c 0,0.1746 -0.43467,0.3147 -0.97461,0.3147 h -3.0515 c -0.53994,0 -0.97461,-0.1401 -0.97461,-0.3147 v -14.36968 c 0,-0.17459 0.43467,-0.31522 0.97461,-0.31522 h 3.0515 c 0.53994,0 0.97461,0.14063 0.97461,0.31522 v 4.68501 h 4.9997 v -40.00016 h -4.9997 v 4.68447 c 0,0.17461 -0.43467,0.31523 -0.97461,0.31523 h -3.0515 c -0.53994,0 -0.97461,-0.14062 -0.97461,-0.31523 v -14.36966 c 0,-0.17461 0.43467,-0.31523 0.97461,-0.31523 h 3.0515 c 0.53994,0 0.97461,0.14062 0.97461,0.31523 v 4.6855 h 4.9997 V 84.111094 h -25.00003 v 5.000214 h 4.02508 c 0.53994,0 0.97462,0.1401 0.97462,0.31471 v 4.36924 c 0,0.17461 -0.43468,0.31523 -0.97462,0.31522 h -13.05088 c -0.53994,0 -0.97462,-0.14061 -0.97462,-0.31522 v -4.36924 c 0,-0.17461 0.43468,-0.31471 0.97462,-0.31471 h 4.02611 v -5.000214 h -40.00014 v 5.000214 h 4.02559 c 0.53994,0 0.97514,0.1401 0.97514,0.31471 v 4.36924 c 0,0.17461 -0.4352,0.31523 -0.97514,0.31522 h -13.0514 c -0.53994,0 -0.97462,-0.14061 -0.97462,-0.31522 v -4.36924 c 0,-0.17461 0.43468,-0.31471 0.97462,-0.31471 h 4.02559 v -5.000214 z"
       id="path4539-5-1-3-8"
       inkscape:connector-curvature="0" />
    <rect
       style="opacity:0.98000004;fill:none;fill-opacity:1;stroke:#0000ff;stroke-width:0.30000001;stroke-linecap:square;stroke-linejoin:miter;stroke-miterlimit:3.9000001;stroke-dasharray:none;stroke-dashoffset:0;stroke-opacity:1;paint-order:fill markers stroke"
       id="rect9754-51-0-8"
       width="14.699824"
       height="50.781212"
       x="-226.81017"
       y="109.85132"
       rx="0.293751"
       ry="0.34919444" />
    <rect
       style="opacity:0.98000004;fill:none;fill-opacity:1;stroke:#0000ff;stroke-width:0.30000001;stroke-linecap:square;stroke-linejoin:miter;stroke-miterlimit:3.9000001;stroke-dasharray:none;stroke-dashoffset:0;stroke-opacity:1;paint-order:fill markers stroke"
       id="rect9756-7-8-1"
       width="7.4835472"
       height="4.0090442"
       x="-223.20203"
       y="105.84228"
       rx="0.293751"
       ry="0.34919444" />
    <text
       xml:space="preserve"
       style="font-style:normal;font-weight:normal;font-size:10.58333302px;line-height:1.25;font-family:sans-serif;letter-spacing:0px;word-spacing:0px;fill:#000000;fill-opacity:1;stroke:#0000ff;stroke-width:0.26458332;stroke-opacity:1"
       x="-223.811"
       y="120.76476"
       id="text9834"><tspan
         sodipodi:role="line"
         id="tspan9832"
         x="-223.811"
         y="120.76476"
         style="stroke:#0000ff;stroke-width:0.26458332;stroke-opacity:1">+</tspan></text>
    <text
       xml:space="preserve"
       style="font-style:normal;font-weight:normal;font-size:10.58333302px;line-height:1.25;font-family:sans-serif;letter-spacing:0px;word-spacing:0px;fill:#000000;fill-opacity:1;stroke:#0000ff;stroke-width:0.26458332;stroke-opacity:1"
       x="-221.90494"
       y="156.50256"
       id="text9884"><tspan
         sodipodi:role="line"
         id="tspan9882"
         x="-221.90494"
         y="156.50256"
         style="stroke:#0000ff;stroke-width:0.26458332;stroke-opacity:1">-</tspan></text>
    <rect
       style="opacity:0.98000004;fill:none;fill-opacity:1;stroke:#0000ff;stroke-width:0.30000001;stroke-linecap:square;stroke-linejoin:miter;stroke-miterlimit:3.9000001;stroke-dasharray:none;stroke-dashoffset:0;stroke-opacity:1;paint-order:fill markers stroke"
       id="rect9754-51-0-8-7"
       width="14.699824"
       height="50.781212"
       x="-208.93533"
       y="109.85132"
       rx="0.293751"
       ry="0.34919444" />
    <rect
       style="opacity:0.98000004;fill:none;fill-opacity:1;stroke:#0000ff;stroke-width:0.30000001;stroke-linecap:square;stroke-linejoin:miter;stroke-miterlimit:3.9000001;stroke-dasharray:none;stroke-dashoffset:0;stroke-opacity:1;paint-order:fill markers stroke"
       id="rect9756-7-8-1-6"
       width="7.4835472"
       height="4.0090442"
       x="-205.32719"
       y="105.84228"
       rx="0.293751"
       ry="0.34919444" />
    <text
       xml:space="preserve"
       style="font-style:normal;font-weight:normal;font-size:10.58333302px;line-height:1.25;font-family:sans-serif;letter-spacing:0px;word-spacing:0px;fill:#000000;fill-opacity:1;stroke:#0000ff;stroke-width:0.26458332;stroke-opacity:1"
       x="-205.93619"
       y="120.76476"
       id="text9834-8"><tspan
         sodipodi:role="line"
         id="tspan9832-5"
         x="-205.93619"
         y="120.76476"
         style="stroke:#0000ff;stroke-width:0.26458332;stroke-opacity:1">+</tspan></text>
    <text
       xml:space="preserve"
       style="font-style:normal;font-weight:normal;font-size:10.58333302px;line-height:1.25;font-family:sans-serif;letter-spacing:0px;word-spacing:0px;fill:#000000;fill-opacity:1;stroke:#0000ff;stroke-width:0.26458332;stroke-opacity:1"
       x="-204.03011"
       y="156.50256"
       id="text9884-2"><tspan
         sodipodi:role="line"
         id="tspan9882-9"
         x="-204.03011"
         y="156.50256"
         style="stroke:#0000ff;stroke-width:0.26458332;stroke-opacity:1">-</tspan></text>
    <rect
       style="opacity:0.98000004;fill:none;fill-opacity:1;stroke:#0000ff;stroke-width:0.30000001;stroke-linecap:square;stroke-linejoin:miter;stroke-miterlimit:3.9000001;stroke-dasharray:none;stroke-dashoffset:0;stroke-opacity:1;paint-order:fill markers stroke"
       id="rect9754-51-0-8-5"
       width="14.699824"
       height="50.781212"
       x="-191.06052"
       y="109.85132"
       rx="0.293751"
       ry="0.34919444" />
    <rect
       style="opacity:0.98000004;fill:none;fill-opacity:1;stroke:#0000ff;stroke-width:0.30000001;stroke-linecap:square;stroke-linejoin:miter;stroke-miterlimit:3.9000001;stroke-dasharray:none;stroke-dashoffset:0;stroke-opacity:1;paint-order:fill markers stroke"
       id="rect9756-7-8-1-0"
       width="7.4835472"
       height="4.0090442"
       x="-187.45238"
       y="105.84228"
       rx="0.293751"
       ry="0.34919444" />
    <text
       xml:space="preserve"
       style="font-style:normal;font-weight:normal;font-size:10.58333302px;line-height:1.25;font-family:sans-serif;letter-spacing:0px;word-spacing:0px;fill:#000000;fill-opacity:1;stroke:#0000ff;stroke-width:0.26458332;stroke-opacity:1"
       x="-188.06136"
       y="120.76476"
       id="text9834-2"><tspan
         sodipodi:role="line"
         id="tspan9832-7"
         x="-188.06136"
         y="120.76476"
         style="stroke:#0000ff;stroke-width:0.26458332;stroke-opacity:1">+</tspan></text>
    <text
       xml:space="preserve"
       style="font-style:normal;font-weight:normal;font-size:10.58333302px;line-height:1.25;font-family:sans-serif;letter-spacing:0px;word-spacing:0px;fill:#000000;fill-opacity:1;stroke:#0000ff;stroke-width:0.26458332;stroke-opacity:1"
       x="-186.15529"
       y="156.50256"
       id="text9884-4"><tspan
         sodipodi:role="line"
         id="tspan9882-96"
         x="-186.15529"
         y="156.50256"
         style="stroke:#0000ff;stroke-width:0.26458332;stroke-opacity:1">-</tspan></text>
    <rect
       style="opacity:0.98000004;fill:none;fill-opacity:1;stroke:#0000ff;stroke-width:0.30000001;stroke-linecap:square;stroke-linejoin:miter;stroke-miterlimit:3.9000001;stroke-dasharray:none;stroke-dashoffset:0;stroke-opacity:1;paint-order:fill markers stroke"
       id="rect9754-51-0-8-7-7"
       width="14.699824"
       height="50.781212"
       x="-173.18568"
       y="109.85132"
       rx="0.293751"
       ry="0.34919444" />
    <rect
       style="opacity:0.98000004;fill:none;fill-opacity:1;stroke:#0000ff;stroke-width:0.30000001;stroke-linecap:square;stroke-linejoin:miter;stroke-miterlimit:3.9000001;stroke-dasharray:none;stroke-dashoffset:0;stroke-opacity:1;paint-order:fill markers stroke"
       id="rect9756-7-8-1-6-9"
       width="7.4835472"
       height="4.0090442"
       x="-169.57755"
       y="105.84228"
       rx="0.293751"
       ry="0.34919444" />
    <text
       xml:space="preserve"
       style="font-style:normal;font-weight:normal;font-size:10.58333302px;line-height:1.25;font-family:sans-serif;letter-spacing:0px;word-spacing:0px;fill:#000000;fill-opacity:1;stroke:#0000ff;stroke-width:0.26458332;stroke-opacity:1"
       x="-170.18652"
       y="120.76476"
       id="text9834-8-2"><tspan
         sodipodi:role="line"
         id="tspan9832-5-4"
         x="-170.18652"
         y="120.76476"
         style="stroke:#0000ff;stroke-width:0.26458332;stroke-opacity:1">+</tspan></text>
    <text
       xml:space="preserve"
       style="font-style:normal;font-weight:normal;font-size:10.58333302px;line-height:1.25;font-family:sans-serif;letter-spacing:0px;word-spacing:0px;fill:#000000;fill-opacity:1;stroke:#0000ff;stroke-width:0.26458332;stroke-opacity:1"
       x="-168.28046"
       y="156.50256"
       id="text9884-2-4"><tspan
         sodipodi:role="line"
         id="tspan9882-9-0"
         x="-168.28046"
         y="156.50256"
         style="stroke:#0000ff;stroke-width:0.26458332;stroke-opacity:1">-</tspan></text>
  </g>
</svg>
