<?xml version="1.0" encoding="UTF-8" standalone="no"?>
<!-- Created with Inkscape (http://www.inkscape.org/) -->

<svg
   xmlns:dc="http://purl.org/dc/elements/1.1/"
   xmlns:cc="http://creativecommons.org/ns#"
   xmlns:rdf="http://www.w3.org/1999/02/22-rdf-syntax-ns#"
   xmlns:svg="http://www.w3.org/2000/svg"
   xmlns="http://www.w3.org/2000/svg"
   xmlns:sodipodi="http://sodipodi.sourceforge.net/DTD/sodipodi-0.dtd"
   xmlns:inkscape="http://www.inkscape.org/namespaces/inkscape"
   width="100.26508mm"
   height="100.26511mm"
   viewBox="0 0 100.26508 100.26511"
   version="1.1"
   id="svg5021"
   inkscape:version="0.92.1 r15371"
   sodipodi:docname="Rueda-Corte-laser.svg">
  <defs
     id="defs5015" />
  <sodipodi:namedview
     id="base"
     pagecolor="#ffffff"
     bordercolor="#666666"
     borderopacity="1.0"
     inkscape:pageopacity="0.0"
     inkscape:pageshadow="2"
     inkscape:zoom="0.49497475"
     inkscape:cx="204.85696"
     inkscape:cy="-8.3488866"
     inkscape:document-units="mm"
     inkscape:current-layer="layer1"
     showgrid="false"
     fit-margin-top="0"
     fit-margin-left="0"
     fit-margin-right="0"
     fit-margin-bottom="0"
     inkscape:window-width="1366"
     inkscape:window-height="705"
     inkscape:window-x="-8"
     inkscape:window-y="-8"
     inkscape:window-maximized="1" />
  <metadata
     id="metadata5018">
    <rdf:RDF>
      <cc:Work
         rdf:about="">
        <dc:format>image/svg+xml</dc:format>
        <dc:type
           rdf:resource="http://purl.org/dc/dcmitype/StillImage" />
        <dc:title></dc:title>
      </cc:Work>
    </rdf:RDF>
  </metadata>
  <g
     inkscape:label="Capa 1"
     inkscape:groupmode="layer"
     id="layer1"
     transform="translate(186.20397,16.203984)">
    <path
       inkscape:connector-curvature="0"
       style="fill:none;fill-opacity:1;stroke:#0000ff;stroke-width:0.30000001;stroke-miterlimit:4;stroke-dasharray:none;stroke-opacity:1"
       d="m -126.19628,67.374684 -1.9641,0.473499 -2.1201,0.5111 -0.18589,0.0443 -0.1879,0.0345 -1.66501,0.233101 -0.1895,0.02461 -1.6758,0.1422 -0.1905,0.01461 -1.6803,0.0522 -0.1911,0.005 -0.1059,-0.0021 -1.57529,-0.0371 -0.191,-0.005 -1.6767,-0.13049 -0.1905,-0.01529 -0.4625,-0.0614 -1.20431,-0.15997 -0.18939,-0.02529 -0.1878,-0.0351 -1.6533,-0.310499 -0.1857,-0.045 -0.67551,-0.165251 -0.95799,-0.234349 -0.1832,-0.0546 -1.6092,-0.487801 -0.18,-0.0641 -0.26918,-0.0978 -1.31122,-0.476411 -0.1764,-0.0734 -1.5471,-0.659699 -0.1723,-0.0826 -1.5093,-0.741601 -0.1678,-0.0915 -0.10831,-0.0666 -0.0545,-0.0335 -2.8872,-1.722601 -0.1572,-0.108599 -0.0533,-0.0395 -1.97256,-1.460799 -0.1514,-0.116599 -0.1451,-0.124301 -2.5101,-2.2356 -0.1384,-0.131799 -0.0254,-0.0269 -0.0968,-0.102369 -0.009,-0.01 -1.7244,-1.8396 -0.1238,-0.1455 -0.1161,-0.151799 -1.41428,-1.84712 -0.62962,-0.822301 -0.1079,-0.1577 -1.3275,-2.143799 -0.0996,-0.1631 -0.0909,-0.1681 -0.33534,-0.641001 -0.83376,-1.593699 -0.0819,-0.172599 -0.6696,-1.5426 -0.0728,-0.176702 -0.5554,-1.58011 -0.28069,-0.798589 -0.0635,-0.180301 -6.4e-4,-0.0021 -0.0533,-0.181118 -0.53315,-1.9641 -0.12745,-0.469501 -0.0443,-0.185901 -0.3231,-1.650601 -0.0345,-0.187899 -0.2331,-1.664999 -0.0246,-0.1895 -0.1422,-1.675802 -0.0146,-0.1905 -0.0522,-1.6803 -0.005,-0.191098 0.002,-0.105899 0.0371,-1.5753 0.005,-0.191 0.1305,-1.676702 0.0154,-0.1905 0.0612,-0.4625 0.15932,-1.204301 0.0253,-0.189399 0.0351,-0.187799 0.3114,-1.653302 0.045,-0.185697 0.16524,-0.675503 0.23435,-0.957998 0.0546,-0.1832 0.48781,-1.609201 0.0641,-0.179999 0.0978,-0.269182 0.32569,-0.896419 0.15071,-0.4148 0.0734,-0.1764 0.6588,-1.547099 0.0826,-0.172302 0.7425,-1.509299 0.06,-0.10999 0.0315,-0.0578 0.0666,-0.108302 0.0335,-0.0545 1.7226,-2.8872 0.1086,-0.157202 0.73841,-0.997098 0.76189,-1.028801 0.1166,-0.151399 0.1243,-0.145101 1.6434,-1.9134 0.1318,-0.138401 0.6191,-0.6237986 0.0944,-0.0951 0.47092,-0.4745 0.1389,-0.1313 1.9008,-1.6569 0.1455,-0.1238 0.1518,-0.1161 2.016,-1.5147 0.11502,-0.0787 0.0427,-0.0292 2.8746,-1.744204 0.1631,-0.0996 0.01,-0.005 0.0686,-0.0371 0.0898,-0.0486 2.27521,-1.0872 0.17259,-0.0819 0.17671,-0.07282 2.39669,-0.89021 0.75331,-0.27979 0.1802,-0.0635 0.1834,-0.0539 1.9641,-0.47349997 2.1201,-0.5111 0.1859,-0.0443 0.1879,-0.0345 1.665,-0.2331 0.1895,-0.0246 1.6758,-0.142199 0.1905,-0.0146 1.6803,-0.0522 0.1911,-0.005 0.1059,0.002 1.5753,0.0371 0.191,0.005 1.67669,0.13049 0.1905,0.0153 0.46251,0.0614 1.2043,0.15997 0.18939,0.0253 0.18781,0.0351 1.6533,0.3105 0.1857,0.045 0.6755,0.16524 0.958,0.23436 0.1832,0.0546 1.60919,0.48779997 0.18001,0.0641 0.26918,0.0978 1.31121,0.4764 0.17641,0.0734 1.5471,0.659735 0.1723,0.0826 1.5093,0.7416 0.1678,0.0915 0.1083,0.0666 0.0545,0.0335 2.8872,1.722599 0.1572,0.1086 0.0524,0.0395 2.63145,1.9855 0.1514,0.1166 0.1451,0.1243 1.98795,1.8696 0.12485,0.11741 0.3361,0.3160896 0.1384,0.1318 0.1313,0.1389 1.6569,1.900801 0.1238,0.1455 0.1161,0.151799 0.8638,1.1937 1.1063,1.528802 0.1079,0.157699 0.0996,0.1631 1.2888,2.168099 0.0423,0.0783 0.0486,0.0898 1.0872,2.27521 0.0819,0.172601 0.0728,0.176699 0.8902,2.39485 0.2807,0.75515 0.0635,0.1803 0.0539,0.183301 0.47306,1.9641 0.51064,2.12009 0.0443,0.185909 0.0345,0.187889 0.2331,1.665002 0.0246,0.1895 0.1422,1.67581 0.0146,0.1905 0.0522,1.6803 0.005,0.1911 -0.002,0.1059 -0.0371,1.5753 -0.005,0.191 -0.1305,1.676699 -0.0154,0.1905 -0.0612,0.462489 -0.15932,1.204312 -0.0253,0.189399 -0.0351,0.187791 -0.31139,1.65331 -0.045,0.1857 -0.16525,0.6755 -0.23434,0.95799 -0.0546,0.183208 -0.48781,1.609201 -0.0641,0.180001 -0.0978,0.26918 -0.4764,1.311219 -0.0734,0.1764 -0.6588,1.547101 -0.0826,0.172299 -0.7425,1.5093 -0.0915,0.167791 -0.0666,0.10831 -0.0335,0.0545 -1.72259,2.887199 -0.1086,0.157202 -0.23976,0.32376 -0.49867,0.673339 -0.76187,1.0288 -0.11661,0.1514 -0.12429,0.1451 -2.2356,2.5101 -0.1318,0.1384 -0.0269,0.0254 -0.10238,0.0968 -0.01,0.009 -2.493,2.253601 -0.1455,0.123799 -0.1518,0.116102 -2.016,1.5147 -0.11502,0.0787 -0.0427,0.0292 -2.1438,1.3275 -0.1631,0.0996 -0.1681,0.0909 -0.641,0.335341 -1.5937,0.83376 -0.1726,0.0819 -0.1767,0.0728 -3.19218,1.225 -0.72912,0.279799 -0.1802,0.0635 -0.1834,0.0539 m -19.69751,-60.5779296 -3.6493,2.8367 -3.19334,2.4822706 -0.55985,0.435179 -0.14902,0.115879 -0.0146,0.0113 -0.0185,0.01439 2e-5,2.9e-5 0.74198,0.954371 3.24867,4.178599 2.14733,2.762001 0.6244,0.723339 0.0465,0.0537 0.59028,0.557001 0.10505,0.0991 0.0519,0.0484 0.7588,0.581459 0.0568,0.0426 0.56227,0.34562 0.2516,0.154652 0.061,0.0363 0.86053,0.41534 0.0645,0.0296 0.89974,0.324789 0.0673,0.0226 0.92679,0.23054 0.0693,0.01529 0.89527,0.128018 0.0511,0.007 0.0706,0.008 0.9548,0.0373 0.0709,2.65e-4 0.95387,-0.0607 0.0706,-0.007 0.94267,-0.157728 0.0672,-0.0141 0.91419,-0.251007 0.007,-0.0021 0.0654,-0.0209 0.89133,-0.346268 0.0629,-0.0275 0.85027,-0.43493 0.0597,-0.0339 0.80173,-0.520798 0.0559,-0.0398 0.74479,-0.599199 0.0128,-0.0113 0.0387,-0.0341 0.67947,-0.671999 0.0466,-0.0504 0.60666,-0.73827 0.0411,-0.0549 0.52828,-0.79706 0.0353,-0.0589 0.44427,-0.845598 0.0291,-0.0621 0.31271,-0.7826 0.042,-0.105 0.0225,-0.0649 0.26227,-0.919339 0.0157,-0.0668 0.16706,-0.9408 0.009,-0.0681 0.0709,-0.952931 0.002,-0.0686 -0.028,-0.95573 -0.005,-0.0684 -0.022,-0.100471 -0.31823,-1.720299 -0.029,-0.156631 -0.51893,-1.334669 -0.0355,-0.0965 -0.0323,-0.0605 -0.30795,-0.5122596 -0.67392,-1.12107 -0.0384,-0.0569 -0.044,-0.0527 -0.9352,-1.08453 -0.0492,-0.0479 -0.62097,-0.54669 -0.0968,-0.0852 -0.77747,-0.5544 -0.0947,-0.0693 -0.83802,-0.47739 -0.007,-0.004 -0.0626,-0.0314 -0.89652,-0.39476 -0.4733,-0.15259 -0.45762,-0.14753 -0.0681,-0.0216 -0.96116,-0.205489 -0.0629,-0.009 -0.98091,-0.10589 -0.98572,-0.005 -0.0627,0.002 -0.9819,0.0964 -0.0608,0.0122 -0.96617,0.195549 -0.94208,0.2938 -0.0573,0.0218 -0.90495,0.38756 -0.0403,0.0222 -0.65941,0.36618 -0.19948,0.11077 -0.0356,0.0249 -0.80391,0.56178 -0.005,0.004 -0.12969,0.10086 -0.17618,0.13695 m 32.66397,9.8671186 -6.73861,-4.568118 -1.02205,-0.692851 -0.15622,-0.105979 -0.0347,-0.0235 -1.55839,2.298848 -2.88323,4.25315 -1.16938,1.725002 -0.4956,0.816668 -0.0367,0.0607 -0.4088,0.864269 -0.03,0.0643 -0.31827,0.90066 -0.0229,0.0672 -0.0557,0.230341 -0.16921,0.699259 -0.0157,0.0692 -0.0884,0.64965 -0.0384,0.282321 -0.002,0.01439 -0.008,0.0705 -0.0308,0.955742 -7.9e-4,0.071 0.0459,0.650661 0.0213,0.30227 0.007,0.0706 0.16426,0.941742 0.0143,0.0695 0.10087,0.357751 0.1586,0.56251 0.0217,0.0676 0.35187,0.8876 0.0287,0.0649 0.40143,0.771469 0.04,0.0769 0.0342,0.0595 0.52547,0.797999 0.0401,0.0557 0.6048,0.74013 0.0456,0.0513 0.67667,0.674801 0.0507,0.0463 0.742,0.601999 0.0551,0.0409 0.31913,0.208298 0.48167,0.31437 0.0591,0.035 0.76201,0.392689 0.0873,0.045 0.0623,0.0287 0.88947,0.34907 0.065,0.02209 0.92026,0.256659 0.0669,0.0154 0.702,0.119552 0.24067,0.041 0.0681,0.008 0.95293,0.0635 0.0686,0.0011 0.95573,-0.0345 0.0684,-0.006 0.94641,-0.131598 0.0675,-0.0127 0.92773,-0.22774 0.0658,-0.0195 0.90067,-0.322001 0.0634,-0.0263 0.32807,-0.170662 0.94219,-0.490138 0.0604,-0.0326 0.0567,-0.0387 1.1676,-0.82786 0.0763,-0.069 0.23479,-0.219741 0.11139,-0.10423 0.16049,-0.150188 0.0468,-0.0438 0.14467,-0.13538 0.0658,-0.0812 0.83583,-1.03138 0.0661,-0.0788 0.0365,-0.0581 1.12093,-2.101861 0.0303,-0.0616 0.28747,-0.911871 0.0366,-0.111048 0.003,-0.01421 0.19257,-0.93762 0.0113,-0.081 0.0619,-0.611659 0.0366,-0.362259 -0.002,-0.979662 -0.003,-0.0758 -0.10187,-0.979292 -0.20182,-0.962959 -0.0153,-0.0668 -0.30049,-0.939041 -0.0238,-0.0563 -0.39412,-0.904848 -0.48567,-0.85956 -0.0342,-0.0533 -0.57001,-0.803971 -0.64896,-0.74236 -0.0443,-0.0482 -0.38495,-0.357751 -0.0373,-0.0347 -0.29814,-0.277069 -0.048,-0.0378 -0.78183,-0.591349 -0.14067,-0.0954 -0.18472,-0.125201 m -52.5608,16.84166 0.21427,0.703932 0.0709,0.233 0.0577,0.159888 0.0333,0.0921 0.0426,0.117819 2.74115,7.5892 0.44394,1.22909 0.0642,0.177501 0.0142,0.0394 1.18,-0.426198 2.82342,-1.019792 5.36858,-1.939078 0.033,-0.01191 0.88106,-0.370541 0.0639,-0.0269 0.83907,-0.458261 0.0608,-0.0335 0.7868,-0.542269 0.057,-0.0395 0.728,-0.6188 0.0525,-0.0453 0.01,-0.01 0.41965,-0.438629 0.23164,-0.242101 0.0476,-0.0505 0.58614,-0.75507 0.0421,-0.0551 0.5068,-0.81013 0.0361,-0.0592 0.42093,-0.85867 0.0297,-0.0627 0.2814,-0.76387 0.049,-0.13307 0.0231,-0.0655 0.23707,-0.925862 0.0162,-0.0675 0.14186,-0.944541 0.009,-0.0687 0.0439,-0.954802 0.002,-0.0694 -0.0541,-0.954799 -0.005,-0.0691 -0.1512,-0.943602 -0.0125,-0.0683 -0.24641,-0.923059 -0.0195,-0.0665 -0.34067,-0.893199 -0.0263,-0.0642 -0.42934,-0.854009 -0.0329,-0.0611 -0.0414,-0.0648 -0.47284,-0.73973 -0.0391,-0.0573 -0.59453,-0.74853 -0.0448,-0.053 -0.0288,-0.0295 -0.63947,-0.65465 -0.05,-0.048 -0.7336,-0.61227 -0.0548,-0.0426 -0.79333,-0.532929 -0.0589,-0.0367 -0.8428,-0.449868 -0.0624,-0.0303 -0.14845,-0.0606 -0.71229,-0.290772 -0.0241,-0.01 -0.0652,-0.02371 -0.91746,-0.268798 -0.0673,-0.0168 -0.93987,-0.173601 -0.0687,-0.01 -0.95293,-0.0765 -0.0693,-0.0021 -0.9548,0.02151 -0.0363,0.0021 -0.0329,0.0021 -0.44608,0.0558 -0.0466,0.006 -0.45558,0.057 -0.0684,0.01191 -0.93147,0.215598 -0.0667,0.01889 -1.26595,0.481128 -0.0725,0.0275 -0.0644,0.0258 -0.0614,0.0323 -0.58407,0.319371 -0.6722,0.36757 -0.76813,0.568399 -0.0946,0.0681 -0.0108,0.01 -0.70758,0.644951 -0.0569,0.0591 -0.65246,0.730909 -0.57401,0.794041 -0.039,0.0577 -0.22604,0.39039 -0.26682,0.460831 -0.40256,0.897339 -0.027,0.0596 -6e-4,0.0021 -0.30848,0.93504 -0.0164,0.0648 -0.212,0.963639 -0.11275,0.980022 -0.004,0.0632 -0.0115,0.98606 0.006,0.0614 0.0884,0.98022 0.013,0.0663 0.17633,0.899549 0.008,0.0348 0.0106,0.0334 m 53.27035,17.27331 0.0536,-0.185341 0.69015,-2.385599 1.67978,-5.806401 0.18209,-0.629409 0.0525,-0.181322 0.0117,-0.0403 -1.926,-0.557192 -7.68,-2.221809 -0.512,-0.120169 -0.41854,-0.0982 -0.0691,-0.01611 -0.94733,-0.122272 -0.0705,-0.009 -0.95573,-0.02429 -0.0709,-0.0011 -0.95293,0.0737 -0.0707,0.006 -0.5402,0.0975 -0.4006,0.0723 -0.0696,0.01389 -0.91747,0.266002 -0.0677,0.0213 -0.88667,0.35841 -0.0651,0.0283 -0.84466,0.447061 -0.0617,0.0351 -0.78254,0.523219 -0.0117,0.008 -0.0577,0.0415 -0.7364,0.60947 -0.0529,0.0473 -0.67013,0.68134 -0.0461,0.0509 -0.5104,0.639001 -0.086,0.107659 -0.0405,0.0553 -0.51707,0.803601 -0.0347,0.0593 -0.43213,0.85213 -0.0284,0.0625 -0.34347,0.89227 -0.0218,0.0651 -0.25013,0.922142 -0.0151,0.067 -0.002,0.0132 -0.032,0.195861 -0.11988,0.734531 -0.008,0.0681 -0.0569,0.953871 -0.001,0.0687 0.0411,0.954799 0.006,0.0683 0.13812,0.94547 0.0131,0.0674 0.0594,0.234799 0.17492,0.692002 0.0199,0.0657 0.3276,0.897871 0.0265,0.0633 0.41813,0.8596 0.0329,0.0602 0.50307,0.812 0.0389,0.0565 0.45448,0.588801 0.12978,0.168129 0.0446,0.0522 0.0768,0.0684 1.38414,1.31413 0.18507,0.12814 0.6008,0.415999 0.0855,0.0572 1.2768,0.648661 0.0617,0.03 0.0645,0.02349 1.82186,0.560941 0.0666,0.01669 0.0679,0.01 1.32064,0.170059 0.0999,0.01291 0.9548,-0.008 0.11647,5.29e-4 0.96604,-0.108178 0.0793,-0.01389 0.60917,-0.132059 0.34835,-0.0755 0.93073,-0.304181 0.0716,-0.02641 0.89947,-0.399769 0.85334,-0.48913 0.0596,-0.0354 0.80129,-0.575932 0.0478,-0.0415 0.73814,-0.655259 0.66683,-0.72658 0.0406,-0.0502 0.58922,-0.790451 0.50451,-0.847259 0.0313,-0.0562 0.41494,-0.891339 0.0207,-0.0563 0.3206,-0.926402 0.0473,-0.163298 0.062,-0.21437 m -33.59922,11.21048 0.97999,0.0182 0.16991,-0.006 0.084,-0.003 0.13898,-0.005 0.20205,-0.007 8.19201,-0.266351 0.97743,-0.0318 0.18862,-0.006 0.0419,-0.0011 -0.0942,-2.897 -0.13318,-4.095998 -0.0976,-3.001002 -0.0803,-0.952929 -0.006,-0.0707 -0.0134,-0.0713 -0.16301,-0.867601 -0.0136,-0.0697 -0.27254,-0.916538 -0.0209,-0.0679 -0.31326,-0.75987 -0.0507,-0.123071 -0.028,-0.0652 -0.45267,-0.841859 -0.0348,-0.0619 -0.21861,-0.3224 -0.31805,-0.469069 -0.0411,-0.0578 -0.61414,-0.73174 -0.0471,-0.0531 -0.68693,-0.665472 -0.0525,-0.0479 -0.7504,-0.590799 -0.0572,-0.0419 -0.7438,-0.472081 -0.0635,-0.0403 -0.0614,-0.0357 -0.85493,-0.42653 -0.0626,-0.0281 -0.89414,-0.336931 -0.0652,-0.02151 -0.29232,-0.0771 -0.63168,-0.166531 -0.0671,-0.01471 -0.94453,-0.147468 -0.0682,-0.008 -0.0904,-0.005 -0.8644,-0.0456 -0.0687,-5.3e-4 -0.8491,0.0415 -0.10477,0.005 -0.0683,0.006 -0.94453,0.1456 -0.0673,0.01339 -0.67609,0.175332 -0.24884,0.0645 -0.0655,0.02019 -0.896,0.334132 -0.0632,0.0269 -0.8568,0.423738 -0.06,0.0332 -0.80827,0.509598 -0.0563,0.0393 -0.7532,0.588931 -0.052,0.0448 -0.68787,0.66267 -7.9e-4,7.94e-4 -0.0464,0.0492 -0.61693,0.729869 -0.0417,0.0545 -0.53947,0.789601 -0.0359,0.0585 -0.45546,0.839999 -0.504,1.34026 -0.0528,0.126542 -0.01,0.0401 -0.006,0.0265 -0.26642,1.388132 -0.0929,0.484129 -0.01,0.0679 -0.002,0.0686 0.0289,1.905868 0.005,0.0685 0.0117,0.0676 0.26507,1.407469 0.009,0.0259 0.29467,0.880401 0.0355,0.110739 0.006,0.01331 0.39537,0.872059 0.0377,0.0712 0.49263,0.84559 0.57775,0.79203 0.0421,0.0546 0.40997,0.456121 0.0696,0.0775 0.17747,0.197429 0.7291,0.659951 0.0471,0.0437 0.006,0.005 0.78902,0.579811 0.0552,0.0358 0.85088,0.49916 0.89714,0.409549 0.0608,0.0254 0.93412,0.31587 0.0625,0.0141 0.96005,0.219112 0.019,0.0021 0.9574,0.115898 0.0355,0.003 z"
       id="path6" />
    <path
       inkscape:connector-curvature="0"
       style="fill:none;stroke:#ff0000;stroke-width:0.26499999;stroke-linecap:square;stroke-linejoin:miter;stroke-miterlimit:4;stroke-dasharray:none;stroke-opacity:1;paint-order:markers stroke fill"
       d="M -186.07147,-16.071484 V 8.9285484 h 5.00021 v -4.685511 c 0,-0.1746 0.43467,-0.31522 0.97462,-0.31522 h 3.05046 c 0.53994,0 0.97461,0.14062 0.97461,0.31522 V 18.612709 c 0,0.174609 -0.43467,0.31523 -0.97461,0.31523 h -3.05046 c -0.53995,0 -0.97462,-0.140621 -0.97462,-0.31523 V 13.92824 h -5.00021 v 40.000147 h 5.00021 v -4.685001 c 0,-0.174598 0.43467,-0.315219 0.97462,-0.315219 h 3.05046 c 0.53994,0 0.97461,0.140621 0.97461,0.315219 v 14.369677 c 0,0.174609 -0.43467,0.314709 -0.97461,0.314709 h -3.05046 c -0.53995,0 -0.97462,-0.1401 -0.97462,-0.314709 v -4.684466 h -5.00021 v 25.000029 h 25.00002 v -5.000223 h -4.02559 c -0.53995,0 -0.97462,-0.14061 -0.97462,-0.315229 v -4.369761 c 0,-0.174591 0.43467,-0.315219 0.97462,-0.315219 h 13.05139 c 0.53995,0 0.97514,0.140629 0.97514,0.315219 v 4.369761 c 0,0.174619 -0.43519,0.315229 -0.97514,0.315229 h -4.0256 v 5.000223 h 40.00015 v -5.000223 h -4.02611 c -0.53994,0 -0.97462,-0.14061 -0.97462,-0.315229 v -4.369761 c 0,-0.174591 0.43468,-0.315219 0.97462,-0.315219 h 13.05088 c 0.53995,0 0.97462,0.140629 0.97462,0.315219 v 4.369761 c 0,0.174619 -0.43467,0.315229 -0.97462,0.315229 h -4.02507 v 5.000223 h 25.000016 V 58.928597 h -4.999689 v 4.684466 c 0,0.174609 -0.434682,0.314709 -0.974622,0.314709 h -3.05149 c -0.539938,0 -0.974619,-0.1401 -0.974619,-0.314709 V 49.243386 c 0,-0.174598 0.434681,-0.315219 0.974619,-0.315219 h 3.05149 c 0.53994,0 0.974622,0.140621 0.974622,0.315219 v 4.685001 h 4.999689 V 13.92824 h -4.999689 v 4.684469 c 0,0.174609 -0.434682,0.31523 -0.974622,0.31523 h -3.05149 c -0.539938,0 -0.974619,-0.140621 -0.974619,-0.31523 V 4.2430374 c 0,-0.1746 0.434681,-0.31522 0.974619,-0.31522 h 3.05149 c 0.53994,0 0.974622,0.14062 0.974622,0.31522 v 4.685511 h 4.999689 V -16.071484 H -111.0714 v 5.00021 h 4.02507 c 0.53995,0 0.97462,0.140111 0.97462,0.31471 v 4.3692505 c 0,0.1746001 -0.43467,0.3152199 -0.97462,0.3152199 h -13.05088 c -0.53994,0 -0.97462,-0.1406198 -0.97462,-0.3152199 v -4.3692505 c 0,-0.174599 0.43468,-0.31471 0.97462,-0.31471 h 4.02611 v -5.00021 h -40.00015 v 5.00021 h 4.0256 c 0.53995,0 0.97514,0.140111 0.97514,0.31471 v 4.3692505 c 0,0.1746001 -0.43519,0.3152199 -0.97514,0.3152199 h -13.05139 c -0.53995,0 -0.97462,-0.1406198 -0.97462,-0.3152199 v -4.3692505 c 0,-0.174599 0.43467,-0.31471 0.97462,-0.31471 h 4.02559 v -5.00021 z"
       id="path4539-5-1-3-8-8-5-67" />
  </g>
</svg>
