<?xml version="1.0" encoding="UTF-8" standalone="no"?>
<!-- Created with Inkscape (http://www.inkscape.org/) -->

<svg
   xmlns:dc="http://purl.org/dc/elements/1.1/"
   xmlns:cc="http://creativecommons.org/ns#"
   xmlns:rdf="http://www.w3.org/1999/02/22-rdf-syntax-ns#"
   xmlns:svg="http://www.w3.org/2000/svg"
   xmlns="http://www.w3.org/2000/svg"
   xmlns:sodipodi="http://sodipodi.sourceforge.net/DTD/sodipodi-0.dtd"
   xmlns:inkscape="http://www.inkscape.org/namespaces/inkscape"
   width="100.26509mm"
   height="100.26511mm"
   viewBox="0 0 100.26509 100.26512"
   version="1.1"
   id="svg5021"
   sodipodi:docname="Sujecion-Bola-Corte-laser.svg"
   inkscape:version="0.92.1 r15371">
  <defs
     id="defs5015" />
  <sodipodi:namedview
     id="base"
     pagecolor="#ffffff"
     bordercolor="#666666"
     borderopacity="1.0"
     inkscape:pageopacity="0.0"
     inkscape:pageshadow="2"
     inkscape:zoom="0.49497475"
     inkscape:cx="80.755685"
     inkscape:cy="174.63628"
     inkscape:document-units="mm"
     inkscape:current-layer="layer1"
     showgrid="false"
     inkscape:window-width="1366"
     inkscape:window-height="705"
     inkscape:window-x="-8"
     inkscape:window-y="-8"
     inkscape:window-maximized="1"
     fit-margin-top="0"
     fit-margin-left="0"
     fit-margin-right="0"
     fit-margin-bottom="0" />
  <metadata
     id="metadata5018">
    <rdf:RDF>
      <cc:Work
         rdf:about="">
        <dc:format>image/svg+xml</dc:format>
        <dc:type
           rdf:resource="http://purl.org/dc/dcmitype/StillImage" />
        <dc:title></dc:title>
      </cc:Work>
    </rdf:RDF>
  </metadata>
  <g
     inkscape:label="Capa 1"
     inkscape:groupmode="layer"
     id="layer1"
     transform="translate(153.36884,-32.210837)">
    <path
       inkscape:connector-curvature="0"
       style="fill:none;stroke:#0000ff;stroke-width:0.30000001;stroke-miterlimit:4;stroke-dasharray:none;stroke-opacity:1"
       d="m -87.806247,77.169464 0.1226,0.1738 h 0.830599 4.906002 l 0.50451,0.903996 1.21049,2.169 0.368998,0.932 0.126,0.995 -0.126,0.995 -0.368998,0.932 -1.21049,2.169 -0.50451,0.904 h -4.906002 -0.414179 -0.102309 -0.274582 -0.0395 l -0.1226,0.1738 -0.584819,0.6269 -0.49358,0.5291 -0.1412,0.159 -0.0441,0.0397 -0.11407,0.10254 -2.0432,1.1904 -0.173199,0.12339 -0.186002,0.10321 -0.196397,0.0816 -0.2042,0.059 -0.01421,0.003 -1.52336,0.3638 -0.2096,0.0358 -0.790401,0.0464 h -0.424802 l -0.0956,-0.0163 -0.114009,-0.0195 -1.939991,-0.29785 -0.009,-0.001 -0.2042,-0.059 -0.125161,-0.052 -0.0712,-0.0296 -1.105609,-0.4304 -0.18598,-0.1032 -0.0102,-0.007 -0.163,-0.11614 -1.316792,-0.8744 -0.1582,-0.1422 -0.0829,-0.0934 -0.0583,-0.0656 -1.0784,-1.156 -0.1226,-0.1738 h -0.0395 -1.40706 -8.192 -8.192 -7.116 v -0.90402 -3.54686 -0.54914 -4.096 -0.903997 h 7.116 8.192 8.192 0.48011 0.003 0.008 0.25651 0.38518 0.27458 0.0395 l 0.1226,-0.1738 1.0784,-1.156001 0.0583,-0.0656 0.0829,-0.0934 0.0441,-0.0397 0.11407,-0.102528 1.316802,-0.874401 0.16299,-0.116131 0.0102,-0.007 0.186,-0.103198 1.105606,-0.430401 0.0712,-0.0296 0.125148,-0.052 0.2042,-0.059 0.009,-0.0011 1.94001,-0.297852 0.11399,-0.0195 0.0956,-0.0163 h 0.0236 0.401231 l 0.7904,0.0464 0.2096,0.0358 1.52336,0.363803 0.01421,0.003 0.2042,0.059 0.196398,0.0816 0.186002,0.103198 0.173199,0.123402 2.043199,1.1904 0.1582,0.1422 0.656032,0.703239 0.42237,0.45276 0.141198,0.159001 m 3.901202,7.153596 h 0.698399 l 0.168799,-0.0696 0.0709,-0.0547 0.0739,-0.0569 0.136001,-0.0784 0.4694,-0.27075 0.131239,-0.17085 0.0836,-0.10875 0.111591,-0.1448 5.29e-4,-10e-4 0.0692,-0.16779 0.024,-0.1812 0.18061,-0.675 -0.18061,-0.675 -0.024,-0.1812 -0.0696,-0.1688 -0.105261,-0.13657 -0.006,-0.008 -0.21481,-0.2796 -0.0011,-7.9e-4 -0.468148,-0.27004 -0.136001,-0.0784 -0.144799,-0.1116 -0.168801,-0.0696 -0.1812,-0.024 -0.181211,0.024 h -0.698399 l -0.168788,0.0696 -0.0709,0.0547 -0.0739,0.0569 -0.223998,0.1292 -0.381403,0.22 -0.214799,0.2796 -0.006,0.008 -0.10518,0.13647 -6.9e-5,9e-5 -0.0696,0.1688 -0.024,0.1812 -0.180639,0.67501 0.1806,0.675 0.024,0.1812 0.0696,0.1688 6.8e-5,8e-5 0.105191,0.13648 0.006,0.008 0.214799,0.2796 0.605401,0.3492 0.0306,0.0236 0.0382,0.0295 0.0759,0.0585 0.168802,0.0696 0.1812,0.024 0.1812,-0.024 m -39.6882,-3.82521 -0.1238,0.051 -0.045,0.0186 -9e-5,8e-5 -0.14471,0.11152 -0.1116,0.1448 -0.4944,0.4944 -0.13055,0.31647 -0.004,0.009 -0.0696,0.1688 v 0.53041 0.168 l -0.024,0.1812 0.024,0.1812 0.0696,0.1688 0.1344,0.3258 0.4944,0.4944 0.1116,0.1448 0.1448,0.1116 0.045,0.0186 0.1238,0.051 0.3258,0.1344 2.4e-4,3e-5 0.18096,0.024 0.33408,0.0442 0.0151,0.002 0.0151,-0.002 0.33408,-0.0442 0.18097,-0.024 2.3e-4,-3e-5 0.3258,-0.1344 0.1688,-0.0696 0.043,-0.0331 0.1018,-0.0785 0.1116,-0.1448 0.4944,-0.4944 0.13055,-0.31647 0.004,-0.009 0.0696,-0.1688 v -0.53041 -0.168 l 0.024,-0.1812 -0.024,-0.1812 -0.0696,-0.1688 -0.1344,-0.3258 -0.4944,-0.4944 -0.1116,-0.1448 -0.1018,-0.0785 -0.0429,-0.0331 -1e-4,-7e-5 -0.1688,-0.0696 -0.3258,-0.1344 -0.1812,-0.024 -0.33408,-0.0442 -0.0151,-0.002 -0.0151,0.002 -0.30293,0.0401 -0.0311,0.004 -0.1812,0.024 z"
       id="path6-1" />
    <path
       inkscape:connector-curvature="0"
       style="fill:none;stroke:#ff0000;stroke-width:0.26499999;stroke-linecap:square;stroke-linejoin:miter;stroke-miterlimit:4;stroke-dasharray:none;stroke-opacity:1;paint-order:markers stroke fill"
       d="M -153.23634,32.343337 V 57.34337 h 5.00021 v -4.685512 c 0,-0.1746 0.43467,-0.31522 0.97462,-0.31522 h 3.05046 c 0.53994,0 0.97461,0.14062 0.97461,0.31522 V 67.02753 c 0,0.174609 -0.43467,0.31523 -0.97461,0.31523 h -3.05046 c -0.53995,0 -0.97462,-0.140621 -0.97462,-0.31523 v -4.684469 h -5.00021 v 40.000149 h 5.00021 v -4.685 c 0,-0.1746 0.43467,-0.31522 0.97462,-0.31522 h 3.05046 c 0.53994,0 0.97461,0.14062 0.97461,0.31522 v 14.36968 c 0,0.1746 -0.43467,0.3147 -0.97461,0.3147 h -3.05046 c -0.53995,0 -0.97462,-0.1401 -0.97462,-0.3147 v -4.68447 h -5.00021 v 25.00003 h 25.00002 v -5.00023 h -4.02559 c -0.53995,0 -0.97462,-0.1406 -0.97462,-0.31523 v -4.36975 c 0,-0.1746 0.43467,-0.31522 0.97462,-0.31522 h 13.05139 c 0.53995,0 0.97514,0.14062 0.97514,0.31522 v 4.36975 c 0,0.17463 -0.43519,0.31523 -0.97514,0.31523 h -4.0256 v 5.00023 h 40.000153 v -5.00023 h -4.026111 c -0.539938,0 -0.974609,-0.1406 -0.974609,-0.31523 v -4.36975 c 0,-0.1746 0.434671,-0.31522 0.974609,-0.31522 h 13.050882 c 0.539949,0 0.974619,0.14062 0.974619,0.31522 v 4.36975 c 0,0.17463 -0.43467,0.31523 -0.974619,0.31523 h -4.025072 v 5.00023 h 25.000022 v -25.00003 h -4.999691 v 4.68447 c 0,0.1746 -0.434679,0.3147 -0.974619,0.3147 h -3.05149 c -0.539941,0 -0.974622,-0.1401 -0.974622,-0.3147 V 97.65821 c 0,-0.1746 0.434681,-0.31522 0.974622,-0.31522 h 3.05149 c 0.53994,0 0.974619,0.14062 0.974619,0.31522 v 4.685 h 4.999691 V 62.343061 h -4.999691 v 4.684469 c 0,0.174609 -0.434679,0.31523 -0.974619,0.31523 h -3.05149 c -0.539941,0 -0.974622,-0.140621 -0.974622,-0.31523 V 52.657858 c 0,-0.1746 0.434681,-0.31522 0.974622,-0.31522 h 3.05149 c 0.53994,0 0.974619,0.14062 0.974619,0.31522 v 4.685512 h 4.999691 V 32.343337 h -25.000022 v 5.00021 h 4.025072 c 0.539949,0 0.974619,0.14011 0.974619,0.31471 v 4.36925 c 0,0.1746 -0.43467,0.31522 -0.974619,0.31522 h -13.050882 c -0.539938,0 -0.974609,-0.14062 -0.974609,-0.31522 v -4.36925 c 0,-0.1746 0.434671,-0.31471 0.974609,-0.31471 h 4.026111 v -5.00021 h -40.000153 v 5.00021 h 4.0256 c 0.53995,0 0.97514,0.14011 0.97514,0.31471 v 4.36925 c 0,0.1746 -0.43519,0.31522 -0.97514,0.31522 h -13.05139 c -0.53995,0 -0.97462,-0.14062 -0.97462,-0.31522 v -4.36925 c 0,-0.1746 0.43467,-0.31471 0.97462,-0.31471 h 4.02559 v -5.00021 z"
       id="path4539-5-1-3-8-8-5-96" />
  </g>
</svg>
