<?xml version="1.0" encoding="UTF-8" standalone="no"?>
<!-- Created with Inkscape (http://www.inkscape.org/) -->

<svg
   xmlns:dc="http://purl.org/dc/elements/1.1/"
   xmlns:cc="http://creativecommons.org/ns#"
   xmlns:rdf="http://www.w3.org/1999/02/22-rdf-syntax-ns#"
   xmlns:svg="http://www.w3.org/2000/svg"
   xmlns="http://www.w3.org/2000/svg"
   xmlns:sodipodi="http://sodipodi.sourceforge.net/DTD/sodipodi-0.dtd"
   xmlns:inkscape="http://www.inkscape.org/namespaces/inkscape"
   width="100.26509mm"
   height="100.26508mm"
   viewBox="0 0 100.26509 100.26509"
   version="1.1"
   id="svg5021"
   inkscape:version="0.92.1 r15371"
   sodipodi:docname="Sujecion-PlacaBotonera-Corte-laser.svg">
  <defs
     id="defs5015" />
  <sodipodi:namedview
     id="base"
     pagecolor="#ffffff"
     bordercolor="#666666"
     borderopacity="1.0"
     inkscape:pageopacity="0.0"
     inkscape:pageshadow="2"
     inkscape:zoom="0.49497475"
     inkscape:cx="-163.55376"
     inkscape:cy="367.72281"
     inkscape:document-units="mm"
     inkscape:current-layer="layer1"
     showgrid="false"
     fit-margin-top="0"
     fit-margin-left="0"
     fit-margin-right="0"
     fit-margin-bottom="0"
     inkscape:window-width="1366"
     inkscape:window-height="705"
     inkscape:window-x="-8"
     inkscape:window-y="-8"
     inkscape:window-maximized="1" />
  <metadata
     id="metadata5018">
    <rdf:RDF>
      <cc:Work
         rdf:about="">
        <dc:format>image/svg+xml</dc:format>
        <dc:type
           rdf:resource="http://purl.org/dc/dcmitype/StillImage" />
        <dc:title></dc:title>
      </cc:Work>
    </rdf:RDF>
  </metadata>
  <g
     inkscape:label="Capa 1"
     inkscape:groupmode="layer"
     id="layer1"
     transform="translate(187.35109,-83.298333)">
    <path
       inkscape:connector-curvature="0"
       style="fill:none;fill-opacity:1;stroke:#0000ff;stroke-width:0.30000001;stroke-miterlimit:4;stroke-dasharray:none;stroke-opacity:1"
       d="m -154.52387,112.24894 1.1e-4,-2.7e-4 0.0188,-0.14919 0.0377,-0.29791 1.2e-4,-8e-4 -0.0378,-0.2982 -0.0188,-0.1492 -0.0556,-0.1396 -0.11041,-0.2796 -0.002,-0.003 -0.02,-0.0275 -0.15492,-0.2132 -0.0884,-0.12161 -0.11559,-0.096 -0.23159,-0.1914 -0.27241,-0.1284 -0.0744,-0.035 -0.0616,-0.029 -0.148,-0.0284 -0.0808,-0.0154 -0.21442,-0.041 -0.15,0.01 -0.30061,0.0192 -1.4e-4,5e-5 -0.28606,0.0929 -0.1432,0.0464 -5.2e-4,2.6e-4 -0.12638,0.0805 -0.2538,0.16081 -0.2058,0.21959 -0.0768,0.0816 -0.0264,0.028 -7.9e-4,10e-4 -0.0717,0.13034 -0.0159,0.0288 -0.12932,0.2346 -0.0372,0.1456 -0.0744,0.2916 v 0.3522 0.0988 l 0.0372,0.146 0.0742,0.29062 2.6e-4,10e-4 0.14519,0.2634 0.0413,0.0752 0.031,0.0564 0.0264,0.028 0.0608,0.0646 0.016,0.017 0.2058,0.219 0.001,7.9e-4 0.25277,0.16074 0.1268,0.0808 5.3e-4,1.7e-4 0.14267,0.0462 0.22705,0.0738 0.0592,0.0192 0.30061,0.0192 0.14779,0.009 0.002,1.4e-4 0.2952,-0.0564 0.14799,-0.028 0.0616,-0.029 0.0744,-0.035 0.2724,-0.1284 0.2316,-0.19141 0.1156,-0.096 0.0595,-0.0818 0.0289,-0.0398 0.17559,-0.24165 0.001,-0.002 0.1104,-0.2796 0.0328,-0.0825 0.0227,-0.0572 m 36.20152,33.33239 -0.3108,0.0414 -0.1448,0.0596 -0.0901,0.0372 -0.1991,0.0822 -0.24839,0.1908 -0.12429,0.0955 -1.1e-4,9e-5 -0.0952,0.124 -0.1172,0.15258 -0.0736,0.0958 -0.06,0.1448 -0.12,0.2898 -0.0204,0.1552 -0.0408,0.3102 2e-5,1e-4 0.0408,0.3107 0.0126,0.0962 0.008,0.0594 0.12,0.2892 0.06,0.1444 0.1908,0.249 0.0945,0.12354 5.3e-4,7.9e-4 0.1244,0.0952 0.2484,0.1908 0.28201,0.11643 0.007,0.003 0.1448,0.06 7.9e-4,1e-4 0.15444,0.0203 0.31069,0.0408 1.1e-4,1e-5 0.1552,-0.0204 0.3108,-0.0408 0.1448,-0.06 0.18192,-0.0751 0.10728,-0.0443 10e-4,-0.001 0.12317,-0.0942 0.23362,-0.17944 0.0148,-0.0114 0.1572,-0.20515 0.0336,-0.0438 0.0952,-0.1244 0.06,-0.1444 0.11996,-0.28911 3e-5,-9e-5 0.008,-0.0594 0.0126,-0.0962 0.0408,-0.3107 2e-5,-1e-4 -0.0408,-0.3102 -0.0204,-0.1552 -0.0628,-0.1516 -0.0572,-0.1382 -0.06,-0.1448 -0.0952,-0.124 -0.0336,-0.0438 -0.15703,-0.20443 -1.7e-4,-2.3e-4 -0.0892,-0.0685 -0.15918,-0.12227 -0.12388,-0.0952 -5.3e-4,-2.6e-4 -0.14479,-0.0596 -0.0547,-0.0226 -0.23446,-0.0968 -0.31082,-0.0414 -0.15519,-0.0208 -5.3e-4,6e-5 -0.15473,0.0207 m -39.985,-35.54855 9e-5,-7e-5 0.22631,-0.20273 0.2826,-0.2532 1.6e-4,-8e-5 0.10105,-0.0521 0.16881,-0.087 0.33744,-0.17382 2.6e-4,-1.8e-4 1.12102,-0.408 0.18313,-0.0666 2.28525,-0.83173 3.4384,-1.25142 4.7536,-1.73013 2.7296,-0.99347 1.3664,-0.49733 2.8306,-1.03028 0.17841,-0.0532 0.1832,-0.0324 0.71819,-0.1266 0.1856,-0.0108 0.1856,0.0108 0.7182,0.1266 0.1832,0.0324 0.1784,0.0532 2.8306,1.03024 4.09602,1.49079 8.192,2.98158 2.4684,0.8984 1.121,0.408 0.3378,0.174 0.16879,0.087 0.10104,0.0521 1.5e-4,8e-5 0.28261,0.2532 0.22632,0.20273 8e-5,7e-5 0.2106,0.3162 0.16839,0.2528 0.10447,0.3018 0.0197,0.057 0.0985,0.28528 7.9e-4,0.002 0.03,0.3786 0.0244,0.3028 -0.0528,0.2992 -0.066,0.3744 -1.3e-4,2.5e-4 -0.15768,0.34535 -0.002,0.003 -0.12494,0.2732 -0.1916,0.236 -0.2394,0.2946 -0.2444,0.18 -0.1886,0.13868 -0.1174,0.0863 -0.3522,0.141 -0.2824,0.11279 -0.3012,0.0384 -0.3768,0.048 h -2.66569 -8.192 -3.492 v 2.54702 16.384 8.192 3.037 h 3.492 8.192 2.08101 0.58499 l 0.3012,0.0388 0.37562,0.0485 10e-4,1.5e-4 0.3522,0.141 0.2824,0.1128 0.1174,0.0863 0.1886,0.13867 0.2444,0.18 0.2394,0.2946 0.0148,0.0182 0.17682,0.2178 0.1264,0.2764 0.15768,0.34535 1.2e-4,2.5e-4 0.0325,0.18419 0.0335,0.19021 0.0525,0.29776 2.6e-4,0.001 -0.0244,0.3028 -0.0184,0.2318 -0.0116,0.1462 -0.0992,0.28721 -0.12421,0.3594 -0.16839,0.25279 -0.20986,0.31509 -8e-4,0.001 -8e-5,8e-5 -0.22631,0.20232 -0.2826,0.2532 -0.1012,0.0521 -0.23661,0.12188 -0.10946,0.0566 -0.16053,0.083 -0.004,0.001 -1.1303,0.41135 -0.14048,0.0511 -0.0109,0.004 -0.0602,0.0219 -0.20902,0.0761 -2.03498,0.74059 -0.44098,0.16049 -6.243,2.2722 v 0.31918 10.67482 h -1.50808 -4.09601 -4.09601 -4.09599 -4.09601 -1.508 v -10.994 l -6.243,-2.2722 -0.441,-0.1605 -3.58592,-1.30504 -0.004,-0.001 -0.16053,-0.083 -0.10946,-0.0566 -0.23661,-0.12189 -0.0763,-0.0393 -2.7e-4,-1.8e-4 -0.0245,-0.0127 -0.28259,-0.2532 -0.22632,-0.20232 -9e-5,-9e-5 -7.9e-4,-0.001 -0.20986,-0.31509 -0.1684,-0.2528 -0.1242,-0.3594 -0.0986,-0.28546 -5.3e-4,-0.002 -0.0116,-0.1462 -0.0184,-0.2318 -0.0244,-0.3028 0.0528,-0.2992 0.0335,-0.1902 0.0325,-0.1842 1.2e-4,-2.5e-4 0.15768,-0.34535 0.1264,-0.2764 0.17682,-0.2178 0.0148,-0.0182 0.23939,-0.2946 0.24441,-0.18001 0.1886,-0.13867 0.11663,-0.0858 8e-4,-5.2e-4 0.28239,-0.1128 0.3522,-0.141 0.37682,-0.0486 0.30118,-0.0388 h 1.87258 0.79342 8.19201 3.49199 v -0.30009 -2.73699 -8.192 -16.384 -2.54699 h -3.49199 -8.19201 -2.048 -0.618 l -0.37679,-0.048 -0.30121,-0.0384 -0.28239,-0.1128 -0.3522,-0.14101 -0.11741,-0.0863 -0.1886,-0.13869 -0.2444,-0.18 -0.23939,-0.2946 -0.1916,-0.236 -0.12494,-0.27319 -0.001,-0.003 -0.15769,-0.34535 -1.1e-4,-2.6e-4 -0.066,-0.37439 -0.0528,-0.29919 1.3e-4,-0.002 0.0243,-0.30122 0.03,-0.37859 0.0992,-0.28721 0.0197,-0.057 0.10447,-0.3018 0.16839,-0.2528 0.2106,-0.3162 m 19.2448,-3.245 0.008,0.0198 0.0614,0.14901 7e-5,9e-5 0.11154,0.14471 0.21349,0.2779 0.001,0.002 0.2796,0.2148 0.0173,0.0133 0.12751,0.0983 0.3258,0.1344 0.1688,0.0696 0.18119,0.024 0.34928,0.0462 0.3492,-0.0462 0.1812,-0.024 0.16879,-0.0696 0.093,-0.0383 0.23184,-0.0956 0.001,-4.2e-4 0.14481,-0.1116 0.27959,-0.2148 0.21481,-0.2796 0.11153,-0.14471 6e-5,-9e-5 0.0614,-0.149 0.008,-0.0198 0.1344,-0.3258 0.0462,-0.34919 0.024,-0.1811 1e-5,-1e-4 -0.024,-0.1812 -0.0182,-0.13786 -0.028,-0.21135 -0.12101,-0.29334 -0.0134,-0.0325 -0.0692,-0.16779 -5.3e-4,-0.001 -0.1116,-0.1448 -0.002,-0.002 -0.21181,-0.2757 -0.001,-0.002 -0.27958,-0.21478 -0.1448,-0.1116 -0.3258,-0.1344 -0.1688,-0.0696 -0.1812,-0.024 -0.3492,-0.0462 -0.3492,0.0462 -0.1812,0.024 -0.1688,0.0696 -0.3248,0.13398 -0.001,4.2e-4 -0.1275,0.0983 -0.0173,0.0133 -0.1111,0.0853 -0.1685,0.12945 -0.21311,0.2774 -0.002,0.002 -0.11153,0.1447 -6e-5,10e-5 -0.0696,0.1688 -0.1344,0.3258 -0.0121,0.0912 -0.0156,0.11771 -0.0186,0.14028 -0.024,0.1812 1e-5,1e-4 0.024,0.1811 0.0462,0.3492 8e-5,1.8e-4 0.13432,0.32562 m 2.0266,52.11779 -0.1812,-0.024 -0.1812,0.024 -0.3492,0.0462 -0.1688,0.0696 -0.3258,0.13441 -0.2796,0.21479 -0.1448,0.1116 -0.1116,0.1448 -0.21473,0.2795 -7e-5,1.1e-4 -0.0614,0.149 -0.008,0.0198 -0.1344,0.3258 -0.024,0.1812 -0.004,0.0277 -0.0425,0.32152 0.0286,0.21637 0.0176,0.13283 0.024,0.1812 0.1344,0.3258 0.0696,0.1688 7e-5,1e-4 0.11287,0.1469 0.10186,0.1326 0.11161,0.1448 0.1448,0.1116 0.27959,0.2148 0.3013,0.12429 0.0245,0.0101 0.1688,0.0696 0.3492,0.0462 0.1812,0.024 0.1812,-0.024 0.3492,-0.0462 0.1688,-0.0696 0.3258,-0.13439 0.2563,-0.1969 0.0233,-0.0179 0.1448,-0.1116 0.1116,-0.1448 0.10187,-0.1326 0.11285,-0.14691 8e-5,-9e-5 0.0696,-0.1688 0.1344,-0.3258 0.024,-0.1812 0.0462,-0.3492 -0.0422,-0.31911 -0.004,-0.0301 -0.024,-0.1812 -0.13441,-0.3258 -0.008,-0.0198 -0.0614,-0.149 -8e-5,-1e-4 -0.21472,-0.2795 -0.1116,-0.1448 -0.1448,-0.1116 -0.27959,-0.2148 -0.3258,-0.1344 -0.16881,-0.0696 -0.3492,-0.0462 m -20.99039,-11.2342 0.0126,0.0962 0.008,0.0594 3e-5,9e-5 0.11997,0.28911 0.06,0.1444 0.0952,0.1244 0.0336,0.0438 0.1572,0.20515 0.2484,0.1908 0.12439,0.0952 0.2892,0.1194 0.1448,0.06 7.9e-4,1e-4 0.31003,0.0407 0.1552,0.0204 1e-4,-1e-5 0.31069,-0.0408 0.15521,-0.0204 0.1448,-0.06 0.007,-0.003 0.282,-0.11643 0.001,-0.001 0.24717,-0.18986 0.1244,-0.0952 5.3e-4,-7.9e-4 0.0945,-0.12354 0.1908,-0.249 0.06,-0.14441 0.11996,-0.2891 4e-5,-1e-4 0.008,-0.0594 0.0126,-0.0962 0.0408,-0.3108 -0.0408,-0.3102 -0.0204,-0.1552 -2e-5,-4e-5 -0.11998,-0.28976 -0.06,-0.14479 -0.1908,-0.24841 -0.0236,-0.0307 -0.0716,-0.0933 -1.1e-4,-8e-5 -0.0611,-0.047 -0.0632,-0.0486 -0.2484,-0.19079 -0.0587,-0.0242 -0.1404,-0.058 -0.0901,-0.0372 -0.1448,-0.0596 -0.3108,-0.0414 -0.1552,-0.0208 -5.3e-4,6e-5 -0.15472,0.0207 -0.30949,0.0412 -0.001,1.8e-4 -0.23446,0.0968 -0.0547,0.0226 -0.14481,0.0596 -0.1244,0.0956 -0.2484,0.19079 -1.7e-4,2.2e-4 -0.15703,0.20443 -0.0336,0.0437 -0.0952,0.124 -0.06,0.14479 -0.0572,0.1382 -0.0627,0.15157 -1e-5,3e-5 -0.0123,0.0939 -0.008,0.0613 -0.0408,0.3102 z"
       id="path6-9" />
    <path
       inkscape:connector-curvature="0"
       style="fill:none;stroke:#ff0000;stroke-width:0.26499999;stroke-linecap:square;stroke-linejoin:miter;stroke-miterlimit:4;stroke-dasharray:none;stroke-opacity:1;paint-order:markers stroke fill"
       d="m -187.21859,83.430833 v 25.000027 h 5.00021 v -4.68551 c 0,-0.1746 0.43467,-0.31522 0.97462,-0.31522 h 3.05046 c 0.53994,0 0.97461,0.14062 0.97461,0.31522 V 118.115 c 0,0.17461 -0.43467,0.31523 -0.97461,0.31523 h -3.05046 c -0.53995,0 -0.97462,-0.14062 -0.97462,-0.31523 v -4.68447 h -5.00021 v 40.00015 h 5.00021 v -4.685 c 0,-0.1746 0.43467,-0.31522 0.97462,-0.31522 h 3.05046 c 0.53994,0 0.97461,0.14062 0.97461,0.31522 v 14.36968 c 0,0.1746 -0.43467,0.3147 -0.97461,0.3147 h -3.05046 c -0.53995,0 -0.97462,-0.1401 -0.97462,-0.3147 v -4.68447 h -5.00021 v 25.00003 h 25.00002 v -5.00023 h -4.02559 c -0.53995,0 -0.97462,-0.1406 -0.97462,-0.31523 v -4.36975 c 0,-0.1746 0.43467,-0.31522 0.97462,-0.31522 h 13.05139 c 0.53996,0 0.97514,0.14062 0.97514,0.31522 v 4.36975 c 0,0.17463 -0.43518,0.31523 -0.97514,0.31523 h -4.02559 v 5.00023 h 40.00015 v -5.00023 h -4.02612 c -0.53993,0 -0.9746,-0.1406 -0.9746,-0.31523 v -4.36975 c 0,-0.1746 0.43467,-0.31522 0.9746,-0.31522 h 13.05089 c 0.53995,0 0.97462,0.14062 0.97462,0.31522 v 4.36975 c 0,0.17463 -0.43467,0.31523 -0.97462,0.31523 h -4.02508 v 5.00023 h 25.000024 v -25.00003 h -4.99968 v 4.68447 c 0,0.1746 -0.43468,0.3147 -0.97462,0.3147 h -3.05149 c -0.53994,0 -0.97463,-0.1401 -0.97463,-0.3147 v -14.36968 c 0,-0.1746 0.43469,-0.31522 0.97463,-0.31522 h 3.05149 c 0.53994,0 0.97462,0.14062 0.97462,0.31522 v 4.685 h 4.99968 v -40.00015 h -4.99968 v 4.68447 c 0,0.17461 -0.43468,0.31523 -0.97462,0.31523 h -3.05149 c -0.53994,0 -0.97463,-0.14062 -0.97463,-0.31523 v -14.36965 c 0,-0.1746 0.43469,-0.31522 0.97463,-0.31522 h 3.05149 c 0.53994,0 0.97462,0.14062 0.97462,0.31522 v 4.68551 h 4.99968 V 83.430833 h -25.000024 v 5.00021 h 4.02508 c 0.53995,0 0.97462,0.14011 0.97462,0.31471 v 4.36925 c 0,0.1746 -0.43467,0.31522 -0.97462,0.31522 h -13.05089 c -0.53993,0 -0.9746,-0.14062 -0.9746,-0.31522 v -4.36925 c 0,-0.1746 0.43467,-0.31471 0.9746,-0.31471 h 4.02612 v -5.00021 h -40.00015 v 5.00021 h 4.02559 c 0.53996,0 0.97514,0.14011 0.97514,0.31471 v 4.36925 c 0,0.1746 -0.43518,0.31522 -0.97514,0.31522 h -13.05139 c -0.53995,0 -0.97462,-0.14062 -0.97462,-0.31522 v -4.36925 c 0,-0.1746 0.43467,-0.31471 0.97462,-0.31471 h 4.02559 v -5.00021 z"
       id="path4539-5-1-3-8-8-5-6" />
  </g>
</svg>
