<?xml version="1.0" encoding="UTF-8" standalone="no"?>
<!-- Created with Inkscape (http://www.inkscape.org/) -->

<svg
   xmlns:dc="http://purl.org/dc/elements/1.1/"
   xmlns:cc="http://creativecommons.org/ns#"
   xmlns:rdf="http://www.w3.org/1999/02/22-rdf-syntax-ns#"
   xmlns:svg="http://www.w3.org/2000/svg"
   xmlns="http://www.w3.org/2000/svg"
   xmlns:sodipodi="http://sodipodi.sourceforge.net/DTD/sodipodi-0.dtd"
   xmlns:inkscape="http://www.inkscape.org/namespaces/inkscape"
   width="100.26509mm"
   height="100.26508mm"
   viewBox="0 0 100.26509 100.26509"
   version="1.1"
   id="svg5021"
   inkscape:version="0.92.1 r15371"
   sodipodi:docname="Sujecion-Portapilas-Corte-laser.svg">
  <defs
     id="defs5015" />
  <sodipodi:namedview
     id="base"
     pagecolor="#ffffff"
     bordercolor="#666666"
     borderopacity="1.0"
     inkscape:pageopacity="0.0"
     inkscape:pageshadow="2"
     inkscape:zoom="0.49497475"
     inkscape:cx="-94.432054"
     inkscape:cy="323.70744"
     inkscape:document-units="mm"
     inkscape:current-layer="layer1"
     showgrid="false"
     fit-margin-top="0"
     fit-margin-left="0"
     fit-margin-right="0"
     fit-margin-bottom="0"
     inkscape:window-width="1366"
     inkscape:window-height="705"
     inkscape:window-x="-8"
     inkscape:window-y="-8"
     inkscape:window-maximized="1" />
  <metadata
     id="metadata5018">
    <rdf:RDF>
      <cc:Work
         rdf:about="">
        <dc:format>image/svg+xml</dc:format>
        <dc:type
           rdf:resource="http://purl.org/dc/dcmitype/StillImage" />
        <dc:title></dc:title>
      </cc:Work>
    </rdf:RDF>
  </metadata>
  <g
     inkscape:label="Capa 1"
     inkscape:groupmode="layer"
     id="layer1"
     transform="translate(205.63954,-71.652604)">
    <path
       inkscape:connector-curvature="0"
       style="fill:none;stroke:#0000ff;stroke-width:0.30000001;stroke-miterlimit:4;stroke-dasharray:none;stroke-opacity:1"
       d="m -139.00707,140.51517 h -0.116 -8.192 -2.692 v 0.98 4.096 2.924 h -1.404 -4.096 -2.5 v -11.116 -1.60126 -0.28274 h -5 l -0.692,-0.0391 -0.316,-0.0179 -0.995,-0.169 -0.97,-0.279 -0.932,-0.386 -0.883,-0.488 -0.823,-0.585 -0.2779,-0.248 -0.4751,-0.424 -0.672,-0.753 -0.585,-0.823 -0.488,-0.883 -0.386,-0.932 -0.0808,-0.281 -0.19818,-0.689 -0.11,-0.64763 -0.059,-0.34737 -0.057,-1.008 v -5.5 -16.384 -8.19199 -0.13965 -1.24436 h 0.116 l 6.32146,-1e-5 1.87054,3e-5 1.692,2e-5 6.5,1e-4 3.52065,6e-5 h 2.97935 1.692 8.192 0.116 v 1.06475 0.31906 3.58034 1.49565 h -0.116 -8.192 -1.692 -6.5 -6.5 -1 l -0.692,0.0451 -0.091,0.006 -0.77,0.153 -0.743,0.253 -0.704,0.347 -0.653,0.436 -0.59,0.517 -0.517,0.59 -0.436,0.653 -0.0572,0.116 -0.28983,0.588 -0.253,0.743 -0.153,0.77 -0.051,0.783 v 13.50002 5.50001 l 0.051,0.783 0.153,0.76999 0.253,0.743 0.19519,0.396 0.15182,0.30801 0.408,0.61106 0.028,0.0419 0.517,0.58999 0.59,0.51701 0.653,0.43599 0.704,0.34701 0.743,0.253 0.77,0.15299 0.091,0.006 0.692,0.0451 h 5 2.5 6.5 1.692 8.192 0.116 v 4.884 z"
       id="path6-8" />
    <path
       inkscape:connector-curvature="0"
       style="fill:none;stroke:#ff0000;stroke-width:0.26499999;stroke-linecap:square;stroke-linejoin:miter;stroke-miterlimit:4;stroke-dasharray:none;stroke-opacity:1;paint-order:markers stroke fill"
       d="m -205.50704,71.785104 v 25.00003 h 5.00021 v -4.68551 c 0,-0.1746 0.43467,-0.31522 0.97462,-0.31522 h 3.05046 c 0.53994,0 0.97461,0.14062 0.97461,0.31522 v 14.369646 c 0,0.17461 -0.43467,0.31523 -0.97461,0.31523 h -3.05046 c -0.53995,0 -0.97462,-0.14062 -0.97462,-0.31523 v -4.68447 h -5.00021 v 40.00015 h 5.00021 v -4.685 c 0,-0.1746 0.43467,-0.31522 0.97462,-0.31522 h 3.05046 c 0.53994,0 0.97461,0.14062 0.97461,0.31522 v 14.36968 c 0,0.1746 -0.43467,0.3147 -0.97461,0.3147 h -3.05046 c -0.53995,0 -0.97462,-0.1401 -0.97462,-0.3147 v -4.68447 h -5.00021 v 25.00003 h 25.00002 v -5.00023 h -4.02559 c -0.53995,0 -0.97462,-0.1406 -0.97462,-0.31523 v -4.36975 c 0,-0.1746 0.43467,-0.31522 0.97462,-0.31522 h 13.05139 c 0.53995,0 0.97514,0.14062 0.97514,0.31522 v 4.36975 c 0,0.17463 -0.43519,0.31523 -0.97514,0.31523 h -4.0256 v 5.00023 h 40.00015 v -5.00023 h -4.02611 c -0.53993,0 -0.97461,-0.1406 -0.97461,-0.31523 v -4.36975 c 0,-0.1746 0.43468,-0.31522 0.97461,-0.31522 h 13.05089 c 0.53994,0 0.97461,0.14062 0.97461,0.31522 v 4.36975 c 0,0.17463 -0.43467,0.31523 -0.97461,0.31523 h -4.02508 v 5.00023 h 25.00002 v -25.00003 h -4.99969 v 4.68447 c 0,0.1746 -0.43467,0.3147 -0.97461,0.3147 h -3.05149 c -0.53995,0 -0.97463,-0.1401 -0.97463,-0.3147 v -14.36968 c 0,-0.1746 0.43468,-0.31522 0.97463,-0.31522 h 3.05149 c 0.53994,0 0.97461,0.14062 0.97461,0.31522 v 4.685 h 4.99969 V 101.7848 h -4.99969 v 4.68447 c 0,0.17461 -0.43467,0.31523 -0.97461,0.31523 h -3.05149 c -0.53995,0 -0.97463,-0.14062 -0.97463,-0.31523 V 92.099624 c 0,-0.1746 0.43468,-0.31522 0.97463,-0.31522 h 3.05149 c 0.53994,0 0.97461,0.14062 0.97461,0.31522 v 4.68551 h 4.99969 v -25.00003 h -25.00002 v 5.00021 h 4.02508 c 0.53994,0 0.97461,0.14011 0.97461,0.31471 v 4.36925 c 0,0.1746 -0.43467,0.31522 -0.97461,0.31522 h -13.05089 c -0.53993,0 -0.97461,-0.14062 -0.97461,-0.31522 v -4.36925 c 0,-0.1746 0.43468,-0.31471 0.97461,-0.31471 h 4.02611 v -5.00021 h -40.00015 v 5.00021 h 4.0256 c 0.53995,0 0.97514,0.14011 0.97514,0.31471 v 4.36925 c 0,0.1746 -0.43519,0.31522 -0.97514,0.31522 h -13.05139 c -0.53995,0 -0.97462,-0.14062 -0.97462,-0.31522 v -4.36925 c 0,-0.1746 0.43467,-0.31471 0.97462,-0.31471 h 4.02559 v -5.00021 z"
       id="path4539-5-1-3-8-8-5-5" />
  </g>
</svg>
