<?xml version="1.0" encoding="UTF-8" standalone="no"?>
<!-- Created with Inkscape (http://www.inkscape.org/) -->

<svg
   xmlns:dc="http://purl.org/dc/elements/1.1/"
   xmlns:cc="http://creativecommons.org/ns#"
   xmlns:rdf="http://www.w3.org/1999/02/22-rdf-syntax-ns#"
   xmlns:svg="http://www.w3.org/2000/svg"
   xmlns="http://www.w3.org/2000/svg"
   xmlns:sodipodi="http://sodipodi.sourceforge.net/DTD/sodipodi-0.dtd"
   xmlns:inkscape="http://www.inkscape.org/namespaces/inkscape"
   width="100.26509mm"
   height="100.26508mm"
   viewBox="0 0 100.26509 100.26509"
   version="1.1"
   id="svg5021"
   inkscape:version="0.92.1 r15371"
   sodipodi:docname="Sujecion-Protoboard-Corte-laser.svg">
  <defs
     id="defs5015" />
  <sodipodi:namedview
     id="base"
     pagecolor="#ffffff"
     bordercolor="#666666"
     borderopacity="1.0"
     inkscape:pageopacity="0.0"
     inkscape:pageshadow="2"
     inkscape:zoom="0.49497475"
     inkscape:cx="-81.878883"
     inkscape:cy="265.54995"
     inkscape:document-units="mm"
     inkscape:current-layer="layer1"
     showgrid="false"
     fit-margin-top="0"
     fit-margin-left="0"
     fit-margin-right="0"
     fit-margin-bottom="0"
     inkscape:window-width="1366"
     inkscape:window-height="705"
     inkscape:window-x="-8"
     inkscape:window-y="-8"
     inkscape:window-maximized="1" />
  <metadata
     id="metadata5018">
    <rdf:RDF>
      <cc:Work
         rdf:about="">
        <dc:format>image/svg+xml</dc:format>
        <dc:type
           rdf:resource="http://purl.org/dc/dcmitype/StillImage" />
        <dc:title></dc:title>
      </cc:Work>
    </rdf:RDF>
  </metadata>
  <g
     inkscape:label="Capa 1"
     inkscape:groupmode="layer"
     id="layer1"
     transform="translate(208.9609,-56.265103)">
    <path
       inkscape:connector-curvature="0"
       style="fill:none;stroke:#0000ff;stroke-width:0.30000001;stroke-miterlimit:4;stroke-dasharray:none;stroke-opacity:1"
       d="m -180.30321,128.1925 v -0.003 -1.41379 -4.096 -3.487 -3.4662 l 1.2388,-1.2388 1.2332,-1.2332 1.648,-1.6476 2.496,2.496 3.0898,3.0898 h 0.4242 12.86999 8.192 5.808 v -2.70501 -8.192 -13.300995 -2.649752 -0.0021 -0.431749 -0.0132 l -1.71199,-1.712 -3.87354,-3.873529 -2.6e-4,-2.65e-4 0.5656,-0.565599 0.636,-0.63659 2.6722,2.672188 3.712,3.712001 h 0.20003 v 0.20003 0.216969 2.186832 0.45493 0.44124 h -0.20004 v 13.300999 8.192 2.705 2.552 h 0.38401 3.55111 0.0149 v 2.935 4.065 h -3.56599 -0.38401 v 0.031 1.417 l -5.2e-4,0.004 -0.0515,0.3861 -0.002,0.004 -0.14949,0.35937 -0.002,0.003 -0.2376,0.30888 -0.003,0.002 -0.30987,0.23562 -0.004,0.002 -0.36135,0.14751 -0.004,5.3e-4 -0.3861,0.0475 -0.008,-0.001 -0.007,-0.003 -0.73696,-0.20384 -0.006,-0.005 -0.163,-0.16689 -0.3711,-0.37995 -0.005,-0.006 -0.10617,-0.23227 -2e-5,-6e-5 -5.3e-4,-0.002 -1.7e-4,-0.001 0.81451,-1.62786 0.14391,-0.2878 0.2561,-0.5122 v -0.001 -3.58251 -3.787 h -0.29983 -5.80801 -8.192 -13.99899 -2.38501 -4.91599 v 0.3 3.487 3.58251 0.001 l 0.25609,0.5122 0.14391,0.2878 0.81447,1.62767 1e-4,2.1e-4 -1.7e-4,0.001 -5.2e-4,0.002 v 3e-5 l -3e-5,4e-5 v 3e-5 l -0.10617,0.23227 -0.003,0.004 -0.32443,0.36259 -0.0555,0.0621 -0.006,0.007 -0.001,7.9e-4 -0.004,0.003 -0.88788,0.32242 -0.007,0.003 -0.008,0.001 -0.3861,-0.0475 -0.004,-5.3e-4 -0.36135,-0.1475 -0.004,-0.002 -0.30987,-0.23563 -0.003,-0.002 -0.2376,-0.30789 -0.002,-0.002 -5.3e-4,-7.9e-4 -0.14949,-0.36036 -0.001,-0.004 -0.001,-0.008 z"
       id="path6-0" />
    <path
       inkscape:connector-curvature="0"
       style="fill:none;stroke:#ff0000;stroke-width:0.26499999;stroke-linecap:square;stroke-linejoin:miter;stroke-miterlimit:4;stroke-dasharray:none;stroke-opacity:1;paint-order:markers stroke fill"
       d="m -208.8284,56.397603 v 25.00003 h 5.00021 v -4.68551 c 0,-0.1746 0.43467,-0.31522 0.97462,-0.31522 h 3.05046 c 0.53994,0 0.97461,0.14062 0.97461,0.31522 v 14.369652 c 0,0.174609 -0.43467,0.31523 -0.97461,0.31523 h -3.05046 c -0.53995,0 -0.97462,-0.140621 -0.97462,-0.31523 v -4.684472 h -5.00021 v 40.000147 h 5.00021 v -4.685 c 0,-0.1746 0.43467,-0.31522 0.97462,-0.31522 h 3.05046 c 0.53994,0 0.97461,0.14062 0.97461,0.31522 v 14.36968 c 0,0.1746 -0.43467,0.3147 -0.97461,0.3147 h -3.05046 c -0.53995,0 -0.97462,-0.1401 -0.97462,-0.3147 v -4.68447 h -5.00021 v 25.00003 h 25.00002 v -5.00023 h -4.02559 c -0.53995,0 -0.97462,-0.1406 -0.97462,-0.31523 v -4.36975 c 0,-0.1746 0.43467,-0.31522 0.97462,-0.31522 h 13.05139 c 0.53995,0 0.97514,0.14062 0.97514,0.31522 v 4.36975 c 0,0.17463 -0.43519,0.31523 -0.97514,0.31523 h -4.0256 v 5.00023 h 40.00015 v -5.00023 h -4.02611 c -0.53994,0 -0.97461,-0.1406 -0.97461,-0.31523 v -4.36975 c 0,-0.1746 0.43467,-0.31522 0.97461,-0.31522 h 13.05088 c 0.53995,0 0.97462,0.14062 0.97462,0.31522 v 4.36975 c 0,0.17463 -0.43467,0.31523 -0.97462,0.31523 h -4.02507 v 5.00023 h 25.00002 v -25.00003 h -4.99969 v 4.68447 c 0,0.1746 -0.43469,0.3147 -0.97462,0.3147 h -3.05149 c -0.53994,0 -0.97462,-0.1401 -0.97462,-0.3147 v -14.36968 c 0,-0.1746 0.43468,-0.31522 0.97462,-0.31522 h 3.05149 c 0.53993,0 0.97462,0.14062 0.97462,0.31522 v 4.685 h 4.99969 V 86.397303 h -4.99969 v 4.684472 c 0,0.174609 -0.43469,0.31523 -0.97462,0.31523 h -3.05149 c -0.53994,0 -0.97462,-0.140621 -0.97462,-0.31523 V 76.712123 c 0,-0.1746 0.43468,-0.31522 0.97462,-0.31522 h 3.05149 c 0.53993,0 0.97462,0.14062 0.97462,0.31522 v 4.68551 h 4.99969 v -25.00003 h -25.00002 v 5.00021 h 4.02507 c 0.53995,0 0.97462,0.14011 0.97462,0.31471 v 4.36925 c 0,0.1746 -0.43467,0.31522 -0.97462,0.31522 h -13.05088 c -0.53994,0 -0.97461,-0.14062 -0.97461,-0.31522 v -4.36925 c 0,-0.1746 0.43467,-0.31471 0.97461,-0.31471 h 4.02611 v -5.00021 h -40.00015 v 5.00021 h 4.0256 c 0.53995,0 0.97514,0.14011 0.97514,0.31471 v 4.36925 c 0,0.1746 -0.43519,0.31522 -0.97514,0.31522 h -13.05139 c -0.53995,0 -0.97462,-0.14062 -0.97462,-0.31522 v -4.36925 c 0,-0.1746 0.43467,-0.31471 0.97462,-0.31471 h 4.02559 v -5.00021 z"
       id="path4539-5-1-3-8-8-5-0" />
  </g>
</svg>
