<?xml version="1.0" encoding="UTF-8" standalone="no"?>
<!-- Created with Inkscape (http://www.inkscape.org/) -->

<svg
   xmlns:dc="http://purl.org/dc/elements/1.1/"
   xmlns:cc="http://creativecommons.org/ns#"
   xmlns:rdf="http://www.w3.org/1999/02/22-rdf-syntax-ns#"
   xmlns:svg="http://www.w3.org/2000/svg"
   xmlns="http://www.w3.org/2000/svg"
   xmlns:sodipodi="http://sodipodi.sourceforge.net/DTD/sodipodi-0.dtd"
   xmlns:inkscape="http://www.inkscape.org/namespaces/inkscape"
   width="100.26509mm"
   height="100.26511mm"
   viewBox="0 0 100.26509 100.26512"
   version="1.1"
   id="svg5021"
   sodipodi:docname="Sujecion-Motores-Corte-laser.svg"
   inkscape:version="0.92.1 r15371">
  <defs
     id="defs5015" />
  <sodipodi:namedview
     id="base"
     pagecolor="#ffffff"
     bordercolor="#666666"
     borderopacity="1.0"
     inkscape:pageopacity="0.0"
     inkscape:pageshadow="2"
     inkscape:zoom="0.49497475"
     inkscape:cx="87.247931"
     inkscape:cy="179.10819"
     inkscape:document-units="mm"
     inkscape:current-layer="layer1"
     showgrid="false"
     inkscape:window-width="1366"
     inkscape:window-height="705"
     inkscape:window-x="-8"
     inkscape:window-y="-8"
     inkscape:window-maximized="1"
     fit-margin-top="0"
     fit-margin-left="0"
     fit-margin-right="0"
     fit-margin-bottom="0" />
  <metadata
     id="metadata5018">
    <rdf:RDF>
      <cc:Work
         rdf:about="">
        <dc:format>image/svg+xml</dc:format>
        <dc:type
           rdf:resource="http://purl.org/dc/dcmitype/StillImage" />
        <dc:title></dc:title>
      </cc:Work>
    </rdf:RDF>
  </metadata>
  <g
     inkscape:label="Capa 1"
     inkscape:groupmode="layer"
     id="layer1"
     transform="translate(155.08658,-33.394028)">
    <path
       inkscape:connector-curvature="0"
       style="fill:none;stroke:#0000ff;stroke-width:0.30000001;stroke-miterlimit:4;stroke-dasharray:none;stroke-opacity:1"
       d="m -133.45393,66.617215 0.0719,-0.566402 0.003,-0.02461 -0.003,-0.02461 -0.0719,-0.56642 v -0.0011 -0.25178 -0.088 -1.67721 h 3.924 4.096 1.98 2.116 1.53917 l 2.55683,0.0011 1.788,7.93e-4 v 2.107309 h 2.308 4.096 2.048 0.0784 0.27064 0.15672 8e-5 l 0.0399,0.0294 0.013,0.01 0.0227,0.0123 0.61972,0.334441 0.16504,0.0517 0.33724,0.105141 0.001,2.64e-4 0.19301,0.01191 0.15049,0.009 0.11302,0.007 0.28566,-0.0537 0.18619,-0.0348 5.3e-4,-2.64e-4 0.14976,-0.0643 0.40755,-0.175149 0.078,-0.0502 0.29995,-0.192691 h 0.0839 0.21656 0.22679 0.10068 0.45263 0.002 1.49259 4.09599 2.308 v -2.107271 l 1.78801,-7.94e-4 2.55682,-0.0011 h 1.53917 4.09601 4.09599 3.92401 v 0.64734 0.44074 9e-5 0.367408 0.221621 0.089 5.29e-4 0.2514 l -0.0719,0.566409 -0.003,0.02461 0.003,0.02461 0.0719,0.566369 v 0.006 0.519481 2.263772 0.0702 h -3.92401 -4.09599 -1.98001 -2.116 -6.38399 v 5.858071 8.192 8.192 5.858068 h 6.38399 4.09601 4.09599 3.92401 v 0.0702 2.263759 0.525001 l -0.0719,0.56641 -0.003,0.0246 0.003,0.0246 0.0719,0.56641 v 0.25195 0.089 0.22315 0.36588 1e-4 0.44073 0.64735 h -3.92401 -4.09599 -4.09601 -1.53917 l -2.55682,-0.001 -1.78801,-8e-4 v -2.10727 h -2.308 -4.09599 -1.49259 -0.002 -0.45474 -0.0986 -0.22679 -0.21656 -0.0839 l -0.29994,-0.19267 -0.078,-0.0502 -5.3e-4,-2.6e-4 -0.40693,-0.17487 -0.14975,-0.0643 -5.3e-4,-2.6e-4 -0.18619,-0.0348 -0.28566,-0.0537 -0.11301,0.007 -0.1505,0.009 -0.19301,0.0119 -0.001,2.6e-4 -0.22229,0.0693 -0.11494,0.0358 -0.16505,0.0517 -0.51727,0.27916 -0.10245,0.0553 -0.0227,0.0123 -0.013,0.01 -0.0399,0.0293 h -7e-5 -0.50579 -2.048 -4.096 -2.308 v 2.10728 l -1.788,7.9e-4 -2.55683,0.001 h -1.53928 -2.116 -1.98 -4.096 -3.924 v -0.64734 -0.44074 -9e-5 -0.36741 -0.22163 -0.33549 -0.006 l 0.0719,-0.5664 0.003,-0.0246 -0.003,-0.0246 -0.0719,-0.56639 v -0.005 -0.24589 -0.273601 -2.33394 h 3.924 4.096 1.98 2.116 6.384 v -5.85811 -8.192 -8.192 -5.85806 h -6.38401 -4.096 -4.096 -3.924 v -0.0702 -2.263769 -0.51947 -0.006 m 30.2126,17.204769 0.0374,-0.295799 -0.0374,-0.295801 -0.0192,-0.14496 -0.10948,-0.277439 -0.0557,-0.135041 -0.17543,-0.241398 -0.0893,-0.115842 -0.22985,-0.1904 -0.11584,-0.0893 -0.26995,-0.126479 -0.13505,-0.0557 -0.29307,-0.0564 -0.14496,-0.01921 -0.0748,0.005 -0.22305,0.01429 -0.14496,0.01921 -0.28355,0.0925 -0.13505,0.0557 -0.2516,0.1598 -0.11584,0.0893 -0.20467,0.216921 -0.0893,0.11584 -0.14348,0.2618 -0.0557,0.135041 -0.0741,0.288999 -0.0192,0.14496 v 0.14892 0.148918 l 0.0192,0.14496 0.0741,0.289002 0.0557,0.135041 0.14348,0.2618 0.0893,0.11584 0.20467,0.216918 0.11584,0.0893 0.2516,0.1598 0.13505,0.0557 0.28355,0.0925 0.14496,0.01921 0.22305,0.01429 0.0748,0.005 0.14496,-0.01921 0.29307,-0.0564 0.13505,-0.0557 0.26995,-0.126482 0.11584,-0.0893 0.22985,-0.1904 0.0893,-0.11584 0.17543,-0.2414 0.0557,-0.135041 0.10948,-0.277439 z"
       id="path6-5" />
    <path
       inkscape:connector-curvature="0"
       style="fill:none;stroke:#ff0000;stroke-width:0.26499999;stroke-linecap:square;stroke-linejoin:miter;stroke-miterlimit:4;stroke-dasharray:none;stroke-opacity:1;paint-order:markers stroke fill"
       d="m -154.95408,33.526528 v 25.000033 h 5.00021 v -4.685512 c 0,-0.1746 0.43467,-0.31522 0.97462,-0.31522 h 3.05046 c 0.53994,0 0.97461,0.14062 0.97461,0.31522 v 14.369672 c 0,0.174609 -0.43467,0.31523 -0.97461,0.31523 h -3.05046 c -0.53995,0 -0.97462,-0.140621 -0.97462,-0.31523 v -4.684469 h -5.00021 V 103.5264 h 5.00021 v -4.685002 c 0,-0.174598 0.43467,-0.315219 0.97462,-0.315219 h 3.05046 c 0.53994,0 0.97461,0.140621 0.97461,0.315219 v 14.369682 c 0,0.1746 -0.43467,0.3147 -0.97461,0.3147 h -3.05046 c -0.53995,0 -0.97462,-0.1401 -0.97462,-0.3147 v -4.68447 h -5.00021 v 25.00003 h 25.00002 v -5.00023 h -4.02559 c -0.53995,0 -0.97462,-0.1406 -0.97462,-0.31523 v -4.36975 c 0,-0.1746 0.43467,-0.31522 0.97462,-0.31522 h 13.05139 c 0.53995,0 0.97514,0.14062 0.97514,0.31522 v 4.36975 c 0,0.17463 -0.43519,0.31523 -0.97514,0.31523 h -4.0256 v 5.00023 h 40.00015 v -5.00023 h -4.02611 c -0.53994,0 -0.97461,-0.1406 -0.97461,-0.31523 v -4.36975 c 0,-0.1746 0.43467,-0.31522 0.97461,-0.31522 h 13.05088 c 0.53995,0 0.97462,0.14062 0.97462,0.31522 v 4.36975 c 0,0.17463 -0.43467,0.31523 -0.97462,0.31523 h -4.02507 v 5.00023 h 25.000022 v -25.00003 h -4.999691 v 4.68447 c 0,0.1746 -0.434679,0.3147 -0.974619,0.3147 h -3.05149 c -0.539941,0 -0.974622,-0.1401 -0.974622,-0.3147 V 98.841398 c 0,-0.174598 0.434681,-0.315219 0.974622,-0.315219 h 3.05149 c 0.53994,0 0.974619,0.140621 0.974619,0.315219 v 4.685002 h 4.999691 V 63.526252 h -4.999691 v 4.684469 c 0,0.174609 -0.434679,0.31523 -0.974619,0.31523 h -3.05149 c -0.539941,0 -0.974622,-0.140621 -0.974622,-0.31523 V 53.841049 c 0,-0.1746 0.434681,-0.31522 0.974622,-0.31522 h 3.05149 c 0.53994,0 0.974619,0.14062 0.974619,0.31522 v 4.685512 h 4.999691 V 33.526528 H -79.95401 v 5.00021 h 4.02507 c 0.53995,0 0.97462,0.14011 0.97462,0.31471 v 4.36925 c 0,0.1746 -0.43467,0.31522 -0.97462,0.31522 h -13.05088 c -0.53994,0 -0.97461,-0.14062 -0.97461,-0.31522 v -4.36925 c 0,-0.1746 0.43467,-0.31471 0.97461,-0.31471 h 4.02611 v -5.00021 h -40.00015 v 5.00021 h 4.0256 c 0.53995,0 0.97514,0.14011 0.97514,0.31471 v 4.36925 c 0,0.1746 -0.43519,0.31522 -0.97514,0.31522 h -13.05139 c -0.53995,0 -0.97462,-0.14062 -0.97462,-0.31522 v -4.36925 c 0,-0.1746 0.43467,-0.31471 0.97462,-0.31471 h 4.02559 v -5.00021 z"
       id="path4539-5-1-3-8-8-5-9" />
  </g>
</svg>
